<svg id="a5e66c26-2db2-45c2-8f79-e6dc7c7b1000" data-name="Laag 1" xmlns="http://www.w3.org/2000/svg" xmlns:xlink="http://www.w3.org/1999/xlink" viewBox="0 0 1125 1747"><defs><style>.aea732ac-3195-4c55-a5be-c1eba13b744c{fill:#edf3f9;}.fdccf895-ebdc-414b-8c15-44f4a1cb9558{fill:url(#e05e4531-9cff-4800-ac43-35e1b928633a);}.e7db743c-be53-4245-80d2-7a9d36c24824{fill:url(#ae8c3da7-ebfc-47cf-9b29-682ea4c9ec63);}.b3f8db6a-a11e-447b-89f4-076b91bc2c07,.be8273bd-3dd3-4841-adcf-9ce1d1204620{fill:none;stroke:#e6e6e6;stroke-miterlimit:10;}.b3f8db6a-a11e-447b-89f4-076b91bc2c07{stroke-width:3px;}.be8273bd-3dd3-4841-adcf-9ce1d1204620{stroke-width:7px;}.ee341e97-52d6-4d1e-a83e-68e23ec13168{fill:url(#b1c227e9-9a54-41db-bfd2-945ac9f16ffd);}</style><linearGradient id="e05e4531-9cff-4800-ac43-35e1b928633a" x1="-568.37" y1="222.13" x2="228.35" y2="-101.43" gradientTransform="translate(96.69 1433.11) rotate(-106.32)" gradientUnits="userSpaceOnUse"><stop offset="0.2" stop-color="#7961a7"/><stop offset="1" stop-color="#da3d8e"/></linearGradient><linearGradient id="ae8c3da7-ebfc-47cf-9b29-682ea4c9ec63" x1="118.89" y1="1206.63" x2="880.08" y2="897.49" xlink:href="#e05e4531-9cff-4800-ac43-35e1b928633a"/><linearGradient id="b1c227e9-9a54-41db-bfd2-945ac9f16ffd" x1="-10.6" y1="-52.42" x2="482.53" y2="-252.69" gradientTransform="matrix(1, 0, 0, 1, 0, 0)" xlink:href="#e05e4531-9cff-4800-ac43-35e1b928633a"/></defs><path class="aea732ac-3195-4c55-a5be-c1eba13b744c" d="M393.56,1710.94c-28.09,127.63,35.92,241.54,48.52,264C528.9,2129.41,714.91,2219.6,890.21,2195c157.35-22.1,252.8-129.23,284.68-166.1,167.27-193.43,209-531.73,67.41-662.4C1042.23,1181.78,462.2,1398.94,393.56,1710.94Z"/><path class="fdccf895-ebdc-414b-8c15-44f4a1cb9558" d="M462.87,1984.8c104-54.77,143.92-203,120-316.56-20.51-97.24-91-184.14-175.37-222.08-86.84-39-138.63-3.84-200.85-57.91-55.23-48-38.55-96.68-94.49-137C63.18,1215.92-19.23,1203-64,1234c-102.82,71.38-66.61,416.36,131.35,612.34C88.59,1867.41,299.28,2070.94,462.87,1984.8Z"/><path class="aea732ac-3195-4c55-a5be-c1eba13b744c" d="M393.61-38.29c-28.08,127.63,35.93,241.54,48.53,264C529,380.19,715,470.38,890.27,445.75c157.34-22.1,252.8-129.23,284.68-166.1,167.27-193.44,209-531.73,67.4-662.41C1042.28-567.44,462.26-350.29,393.61-38.29Z"/><path class="e7db743c-be53-4245-80d2-7a9d36c24824" d="M1200,1060.62c100-63.47,31.4-300.58,21.17-335.93S1136,444.09,916.74,356.84C828.27,321.63,710.8,310,693.48,345.09c-8.93,18.1,11.15,43.79,65,110.14C920.88,655.14,918.6,643.5,930,665.34c72.89,140.21-33.31,235.16,41.59,333C1024.74,1067.78,1139.08,1099.26,1200,1060.62Z"/><path class="b3f8db6a-a11e-447b-89f4-076b91bc2c07" d="M-107.52-25.82C240.94,78.42,361.27,266.7,399.41,337.7c65.74,122.42,84.41,268,121.75,559.06,24.18,188.53,21.21,278.79,97.15,376.81,90.73,117.1,224.08,183.78,224.08,183.78,61.24,30.62,95.88,35.05,152.39,74.07,71.93,49.68,115.8,111.56,141.7,156.34"/><path class="b3f8db6a-a11e-447b-89f4-076b91bc2c07" d="M1244.54,1630.94c25.15-30.32,67.58-89.69,86.57-175.23,11-49.59,27-121.79-8-187.09-43-80.08-137.69-102.9-179.35-112.94-195.3-47.08-296.78,74.17-377.64,20.66-101.61-67.25,30.78-279-71.35-395.16C577.09,647.33,314,828.42.15,712.8c-149.09-54.92-250.91-155.14-314-232"/><circle class="be8273bd-3dd3-4841-adcf-9ce1d1204620" cx="1070.62" cy="1419.88" r="24.16"/><circle class="be8273bd-3dd3-4841-adcf-9ce1d1204620" cx="343.66" cy="141.2" r="24.16"/><circle class="be8273bd-3dd3-4841-adcf-9ce1d1204620" cx="420.75" cy="1022.68" r="24.16"/><path class="ee341e97-52d6-4d1e-a83e-68e23ec13168" d="M-.35.86v-531c-23.94.3-46.34,5.74-63.32,17.53C-166.49-441.25-130.28-96.27,67.68,99.71c21.23,21,231.93,224.56,395.51,138.42C544.15,195.5,586.26,96.31,589.67.86Z"/></svg>