<!-- Generator: Adobe Illustrator 25.2.0, SVG Export Plug-In  -->
<svg version="1.1" xmlns="http://www.w3.org/2000/svg" xmlns:xlink="http://www.w3.org/1999/xlink" x="0px" y="0px"
	 width="142.09px" height="53.41px" viewBox="0 0 142.09 53.41" style="overflow:visible;enable-background:new 0 0 142.09 53.41;"
	 xml:space="preserve">
<style type="text/css">
	.st0{fill:#FFFFFF;}
</style>
<defs>
</defs>
<g>
	<path class="st0" d="M64.85,5.79H53.03c-0.34,0-0.62,0.28-0.62,0.62v18.84c0,0.34,0.28,0.62,0.62,0.62h3.65
		c0.34,0,0.62-0.28,0.62-0.62v-6.88c0-0.34,0.28-0.62,0.62-0.62h4.88c0.34,0,0.62-0.28,0.62-0.62v-2.56c0-0.34-0.28-0.62-0.62-0.62
		h-4.88c-0.34,0-0.62-0.28-0.62-0.62v-2.99c0-0.34,0.28-0.62,0.62-0.62h6.94c0.34,0,0.62-0.28,0.62-0.62V6.42
		C65.48,6.07,65.2,5.79,64.85,5.79z"/>
	<path class="st0" d="M70.51,2.96c-1.74,0-2.92,1.17-2.92,2.66c0,1.46,1.17,2.63,2.92,2.63c1.72,0,2.89-1.17,2.89-2.63
		C73.4,4.14,72.23,2.96,70.51,2.96z"/>
	<path class="st0" d="M72.32,9.91h-3.65c-0.34,0-0.62,0.28-0.62,0.62v14.72c0,0.34,0.28,0.62,0.62,0.62h3.65
		c0.34,0,0.62-0.28,0.62-0.62V10.53C72.94,10.19,72.66,9.91,72.32,9.91z"/>
	<path class="st0" d="M84.76,21.73h-1.12c-1.09,0-1.49-0.4-1.49-1.34V14.6c0-0.34,0.28-0.62,0.62-0.62h1.96
		c0.34,0,0.62-0.28,0.62-0.62v-2.82c0-0.34-0.28-0.62-0.62-0.62h-1.96c-0.34,0-0.62-0.28-0.62-0.62V6.64c0-0.34-0.28-0.62-0.62-0.62
		h-3.65c-0.34,0-0.62,0.28-0.62,0.62v2.65c0,0.34-0.28,0.62-0.62,0.62h-0.7c-0.34,0-0.62,0.28-0.62,0.62v2.82
		c0,0.34,0.28,0.62,0.62,0.62h0.7c0.34,0,0.62,0.28,0.62,0.62v5.73c0,4.15,2.32,5.55,5.63,5.55h1.87c0.34,0,0.62-0.28,0.62-0.62
		v-2.9C85.38,22,85.1,21.73,84.76,21.73z"/>
	<path class="st0" d="M101.57,16.06c-0.41-0.22-0.43-0.81-0.03-1.06c1.26-0.79,2.11-2.15,2.11-4c0-3.18-2.43-5.21-6.52-5.21h-8.42
		c-0.34,0-0.62,0.28-0.62,0.62v18.84c0,0.34,0.28,0.62,0.62,0.62h8.73c4.23,0,6.66-2.15,6.66-5.46
		C104.11,18.59,103.15,16.91,101.57,16.06z M92.99,10.33c0-0.34,0.28-0.62,0.62-0.62h2.58c1.6,0,2.49,0.74,2.49,2.12
		c0,1.37-0.89,2.09-2.49,2.09h-2.58c-0.34,0-0.62-0.28-0.62-0.62V10.33z M96.59,21.93h-2.98c-0.34,0-0.62-0.28-0.62-0.62v-3.19
		c0-0.34,0.28-0.62,0.62-0.62h2.92c1.63,0,2.63,0.83,2.63,2.26C99.17,21.18,98.22,21.93,96.59,21.93z"/>
	<path class="st0" d="M122.08,9.91h-3.65c-0.34,0-0.62,0.28-0.62,0.62v8.04c0,2.17-1.2,3.37-3.09,3.37c-1.83,0-3.06-1.2-3.06-3.37
		v-8.04c0-0.34-0.28-0.62-0.62-0.62h-3.62c-0.34,0-0.62,0.28-0.62,0.62v8.7c0,4.26,2.49,6.81,6.18,6.81c1.53,0,2.85-0.5,3.83-1.28
		c0.41-0.33,1-0.03,1,0.48v0.01c0,0.34,0.28,0.62,0.62,0.62h3.65c0.34,0,0.62-0.28,0.62-0.62V10.53
		C122.7,10.19,122.43,9.91,122.08,9.91z"/>
	<path class="st0" d="M141.47,4.71h-3.65c-0.34,0-0.62,0.28-0.62,0.62v5.2c0,0.52-0.6,0.81-1.01,0.48
		c-1.01-0.83-2.39-1.33-3.91-1.33c-3.92,0-7.04,3.15-7.04,8.18c0,5.03,3.12,8.24,7.04,8.24c1.63,0,2.95-0.51,3.89-1.32
		c0.41-0.35,1.03-0.07,1.03,0.47c0,0.34,0.28,0.62,0.62,0.62h3.65c0.34,0,0.62-0.28,0.62-0.62V5.33
		C142.09,4.99,141.82,4.71,141.47,4.71z M133.71,21.84c-1.83,0-3.49-1.43-3.49-3.98c0-2.55,1.66-3.92,3.49-3.92
		c1.86,0,3.49,1.4,3.49,3.95C137.2,20.44,135.57,21.84,133.71,21.84z"/>
	<path class="st0" d="M7.81,13.6C0.05,25.01-0.75,38.6,0.45,38.93c1.25,0.35,1.84-15.17,12.76-21.49
		c10.04-5.81,21.61,0.31,26.01-6.37c1.28-1.95,1.44-4.7,0.69-6.76C37.27-2.9,18.34-1.88,7.81,13.6z"/>
	<path class="st0" d="M6.01,32.83c-4.23,9.38-3.64,20.32-2.76,20.58c0.93,0.27,0.27-12.49,7.19-18.2c6.39-5.27,14.71-0.81,17-6.52
		c0.64-1.59,0.57-3.81-0.14-5.41C24.82,17.74,11.87,19.84,6.01,32.83z"/>
</g>
</svg>
