<!-- Generator: Adobe Illustrator 25.2.0, SVG Export Plug-In  -->
<svg version="1.1" xmlns="http://www.w3.org/2000/svg" xmlns:xlink="http://www.w3.org/1999/xlink" x="0px" y="0px" width="40.36px"
	 height="53.41px" viewBox="0 0 40.36 53.41" style="overflow:visible;enable-background:new 0 0 40.36 53.41;"
	 xml:space="preserve">
<style type="text/css">
	.st0{fill:#3C3C3B;}
</style>
<defs>
</defs>
<g>
	<path class="st0" d="M7.81,13.6C0.05,25.01-0.75,38.6,0.45,38.93c1.25,0.35,1.84-15.17,12.76-21.49
		c10.04-5.81,21.61,0.31,26.01-6.37c1.28-1.95,1.44-4.7,0.69-6.76C37.27-2.9,18.34-1.88,7.81,13.6z"/>
	<path class="st0" d="M6.01,32.83c-4.23,9.38-3.64,20.32-2.76,20.58c0.93,0.27,0.27-12.49,7.19-18.2c6.39-5.27,14.71-0.81,17-6.52
		c0.64-1.59,0.57-3.81-0.14-5.41C24.82,17.74,11.87,19.84,6.01,32.83z"/>
</g>
</svg>

