<svg id="a7e0fde0-04b0-41f5-a1ce-a9953c8fac34" data-name="Laag 1" xmlns="http://www.w3.org/2000/svg" viewBox="0 0 603.37 618.49"><defs><style>.aa75241f-b957-4fd4-90ab-6cb65853a511,.b07a66ae-8d2d-4ab5-8611-1662e8b35a17,.bf57b070-9b46-4c8e-8fcd-234cf7139ef4{opacity:0.4;}.a4a4b8fc-ce17-468c-9133-b779ca8598eb{fill:#17181e;}.be58b104-e009-4dee-95f1-678634e81d42{fill:#313654;opacity:0.5;}.bf57b070-9b46-4c8e-8fcd-234cf7139ef4{fill:none;stroke:#fff;stroke-miterlimit:10;stroke-width:3px;}.aa4f2950-50d1-46ec-a842-d0ff126377d5,.aa75241f-b957-4fd4-90ab-6cb65853a511{fill:#fff;}.b2e06844-da46-431b-b883-c16e8f2106f9{fill:#db4185;}</style></defs><g class="b07a66ae-8d2d-4ab5-8611-1662e8b35a17"><path class="a4a4b8fc-ce17-468c-9133-b779ca8598eb" d="M370.22,407.69H356c-5.6,0-10.14-6-10.14-13.37h0c0-7.38,4.54-13.37,10.14-13.37h57c5.6,0,10.14-6,10.14-13.37h0c0-7.39-4.54-13.37-10.14-13.37H354.72c-5.6,0-10.14-6-10.14-13.38h0c0-7.38-4.54-13.37-10.14-13.37H267.66c-5.6,0-10.14,6-10.14,13.37h0c0,7.39-4.54,13.38-10.14,13.38h-38.3c-5.6,0-10.14,6-10.14,13.37h0c0,7.38,4.54,13.37,10.14,13.37h70.65c5.6,0,10.14,6,10.14,13.37h0c0,7.39-4.54,13.37-10.14,13.37h-8.79c-5.6,0-10.14,6-10.14,13.38h0c0,7.38-4.54,13.37-10.14,13.37H238.09c-5.6,0-10.14-6-10.14-13.37h0c0-7.39-4.54-13.38-10.14-13.38H178.94c-5.6,0-10.14-6-10.14-13.37h0c0-7.38-4.54-13.37-10.14-13.37H97.07c-5.6,0-10.14,6-10.14,13.37h0c0,7.39,4.54,13.37,10.14,13.37h2.44c5.6,0,10.14,6,10.14,13.38h0c0,7.38,4.54,13.37,10.14,13.37h36.13c5.6,0,10.14,6,10.14,13.37h0c0,7.39-4.54,13.37-10.14,13.37H71.86c-5.6,0-10.14,6-10.14,13.37h0c0,7.39,4.54,13.38,10.14,13.38H173c5.6,0,10.14,6,10.14,13.37h0c0,7.38-4.54,13.37-10.14,13.37h-6.6c-5.6,0-10.14,6-10.14,13.37h0c0,7.39,4.54,13.37,10.14,13.37h98c5.6,0,10.14-6,10.14-13.37h0c0-7.38-4.54-13.37-10.14-13.37h-12c-5.6,0-10.14-6-10.14-13.37h0c0-7.39,4.54-13.37,10.14-13.37h52c5.6,0,10.14-6,10.14-13.38h0c0-7.38,4.54-13.37,10.14-13.37H330c5.6,0,10.14-6,10.14-13.37h0c0-7.39,4.54-13.37,10.14-13.37h19.91c5.6,0,10.14-6,10.14-13.37h0C380.36,413.68,375.82,407.69,370.22,407.69Z"/><path class="a4a4b8fc-ce17-468c-9133-b779ca8598eb" d="M386.75,474.55h0c0,7.39-4.54,13.38-10.14,13.38h-9.13c-5.6,0-10.14,6-10.14,13.37h0c0,7.38,4.54,13.37,10.14,13.37H424.6c5.6,0,10.14-6,10.14-13.37h0c0-7.39,4.54-13.37,10.13-13.37h18.8c5.6,0,10.14-6,10.14-13.38h0c0-7.38-4.54-13.37-10.14-13.37H396.89C391.29,461.18,386.75,467.17,386.75,474.55Z"/><path class="a4a4b8fc-ce17-468c-9133-b779ca8598eb" d="M52.83,407.69H26.68c-5.6,0-10.14,6-10.14,13.38h0c0,7.38,4.54,13.37,10.14,13.37H52.83c5.6,0,10.14-6,10.14-13.37h0C63,413.68,58.43,407.69,52.83,407.69Z"/><path class="a4a4b8fc-ce17-468c-9133-b779ca8598eb" d="M143,327.46h48.49c5.6,0,10.14-6,10.14-13.37h0c0-7.38-4.54-13.37-10.14-13.37H124.72c-5.6,0-10.14,6-10.14,13.37h0c0,7.39-4.54,13.37-10.14,13.37H90.15c-5.6,0-10.14,6-10.14,13.37h0c0,7.39,4.54,13.38,10.14,13.38h32.57c5.6,0,10.14-6,10.14-13.38h0C132.86,333.45,137.4,327.46,143,327.46Z"/><path class="a4a4b8fc-ce17-468c-9133-b779ca8598eb" d="M243.78,594.9H300.9c5.6,0,10.14-6,10.14-13.37h0c0-7.39-4.54-13.37-10.14-13.37H243.78c-5.6,0-10.13,6-10.13,13.37h0C233.65,588.91,238.18,594.9,243.78,594.9Z"/></g><g class="b07a66ae-8d2d-4ab5-8611-1662e8b35a17"><path class="a4a4b8fc-ce17-468c-9133-b779ca8598eb" d="M233.15,210.8H247.4c5.6,0,10.14,6,10.14,13.37h0c0,7.38-4.54,13.37-10.14,13.37h-57c-5.6,0-10.14,6-10.14,13.37h0c0,7.39,4.54,13.37,10.14,13.37h58.26c5.6,0,10.14,6,10.14,13.37h0c0,7.39,4.54,13.38,10.14,13.38h66.77c5.6,0,10.14-6,10.14-13.38h0c0-7.38,4.54-13.37,10.14-13.37h38.3c5.6,0,10.14-6,10.14-13.37h0c0-7.38-4.54-13.37-10.14-13.37H323.65c-5.6,0-10.14-6-10.14-13.37h0c0-7.39,4.54-13.37,10.14-13.37h8.79c5.6,0,10.14-6,10.14-13.38h0c0-7.38,4.53-13.37,10.13-13.37h12.57c5.6,0,10.14,6,10.14,13.37h0c0,7.39,4.54,13.38,10.14,13.38h38.88c5.6,0,10.13,6,10.13,13.37h0c0,7.38,4.54,13.37,10.14,13.37H506.3c5.6,0,10.14-6,10.14-13.37h0c0-7.39-4.54-13.37-10.14-13.37h-2.43c-5.6,0-10.14-6-10.14-13.38h0c0-7.38-4.54-13.37-10.14-13.37H447.45c-5.59,0-10.13-6-10.13-13.37h0c0-7.39,4.54-13.37,10.13-13.37h84.06c5.6,0,10.14-6,10.14-13.37h0c0-7.39-4.54-13.38-10.14-13.38H430.42c-5.6,0-10.14-6-10.14-13.37h0c0-7.38,4.54-13.37,10.14-13.37H437c5.6,0,10.14-6,10.14-13.37h0c0-7.39-4.54-13.37-10.14-13.37H339c-5.6,0-10.14,6-10.14,13.37h0c0,7.38,4.54,13.37,10.14,13.37h12c5.6,0,10.14,6,10.14,13.37h0c0,7.39-4.54,13.37-10.14,13.37H299c-5.6,0-10.13,6-10.13,13.38h0c0,7.38-4.54,13.37-10.14,13.37h-5.34c-5.6,0-10.14,6-10.14,13.37h0c0,7.38-4.54,13.37-10.14,13.37H233.15c-5.6,0-10.14,6-10.14,13.37h0C223,204.81,227.55,210.8,233.15,210.8Z"/><path class="a4a4b8fc-ce17-468c-9133-b779ca8598eb" d="M216.62,117.19h0c0-7.38,4.54-13.37,10.14-13.37h9.13c5.6,0,10.14-6,10.14-13.37h0c0-7.39-4.54-13.37-10.14-13.37H178.78c-5.6,0-10.14,6-10.14,13.37h0c0,7.38-4.54,13.37-10.14,13.37H139.71c-5.6,0-10.14,6-10.14,13.37h0c0,7.39,4.54,13.37,10.14,13.37h66.77C212.08,130.56,216.62,124.58,216.62,117.19Z"/><path class="a4a4b8fc-ce17-468c-9133-b779ca8598eb" d="M550.54,103.82H576.7c5.6,0,10.14-6,10.14-13.37h0c0-7.39-4.54-13.37-10.14-13.37H550.54c-5.6,0-10.14,6-10.14,13.37h0C540.4,97.83,544.94,103.82,550.54,103.82Z"/><path class="a4a4b8fc-ce17-468c-9133-b779ca8598eb" d="M460.37,291H411.88c-5.6,0-10.14,6-10.14,13.37h0c0,7.38,4.54,13.37,10.14,13.37h66.78c5.6,0,10.14-6,10.14-13.37h0c0-7.39,4.54-13.37,10.14-13.37h14.29c5.6,0,10.13-6,10.13-13.38h0c0-7.38-4.53-13.37-10.13-13.37H480.65c-5.6,0-10.14,6-10.14,13.37h0C470.51,285,466,291,460.37,291Z"/><path class="a4a4b8fc-ce17-468c-9133-b779ca8598eb" d="M359.59,23.59H302.47c-5.6,0-10.14,6-10.14,13.37h0c0,7.39,4.54,13.37,10.14,13.37h57.12c5.6,0,10.14-6,10.14-13.37h0C369.73,29.57,365.19,23.59,359.59,23.59Z"/></g><rect class="be58b104-e009-4dee-95f1-678634e81d42" x="161.9" y="110.23" width="297" height="425.11" rx="20"/><circle class="bf57b070-9b46-4c8e-8fcd-234cf7139ef4" cx="310.4" cy="241.16" r="64.93"/><rect class="aa75241f-b957-4fd4-90ab-6cb65853a511" x="196.4" y="335.23" width="228" height="36" rx="12"/><rect class="aa75241f-b957-4fd4-90ab-6cb65853a511" x="223.54" y="382.73" width="173.72" height="16.72" rx="4.39"/><g class="b07a66ae-8d2d-4ab5-8611-1662e8b35a17"><path class="aa4f2950-50d1-46ec-a842-d0ff126377d5" d="M270.34,418.56l-1.73,3.5-3.86.56a.85.85,0,0,0-.47,1.45l2.8,2.72-.67,3.84a.85.85,0,0,0,1.23.89l3.46-1.81,3.45,1.81a.85.85,0,0,0,1.23-.89l-.66-3.84,2.79-2.72a.85.85,0,0,0-.47-1.45l-3.86-.56-1.73-3.5a.84.84,0,0,0-1.51,0Z"/><path class="aa4f2950-50d1-46ec-a842-d0ff126377d5" d="M290,418.56l-1.73,3.5-3.86.56a.85.85,0,0,0-.47,1.45l2.8,2.72-.66,3.84a.84.84,0,0,0,1.22.89l3.46-1.81,3.45,1.81a.84.84,0,0,0,1.23-.89l-.66-3.84,2.79-2.72a.85.85,0,0,0-.47-1.45l-3.86-.56-1.72-3.5a.85.85,0,0,0-1.52,0Z"/><path class="aa4f2950-50d1-46ec-a842-d0ff126377d5" d="M309.64,418.56l-1.72,3.5-3.86.56a.85.85,0,0,0-.47,1.45l2.79,2.72-.66,3.84a.84.84,0,0,0,1.23.89l3.45-1.81,3.46,1.81a.84.84,0,0,0,1.22-.89l-.66-3.84,2.79-2.72a.85.85,0,0,0-.46-1.45l-3.86-.56-1.73-3.5a.85.85,0,0,0-1.52,0Z"/><path class="aa4f2950-50d1-46ec-a842-d0ff126377d5" d="M329.3,418.56l-1.73,3.5-3.86.56a.85.85,0,0,0-.47,1.45l2.79,2.72-.66,3.84a.85.85,0,0,0,1.23.89l3.45-1.81,3.46,1.81a.84.84,0,0,0,1.22-.89l-.66-3.84,2.8-2.72a.85.85,0,0,0-.47-1.45l-3.86-.56-1.73-3.5a.84.84,0,0,0-1.51,0Z"/><path class="aa4f2950-50d1-46ec-a842-d0ff126377d5" d="M349,418.56l-1.73,3.5-3.86.56a.85.85,0,0,0-.47,1.45l2.8,2.72-.66,3.84a.84.84,0,0,0,1.22.89l3.46-1.81,3.45,1.81a.85.85,0,0,0,1.23-.89l-.66-3.84,2.79-2.72a.85.85,0,0,0-.47-1.45l-3.86-.56-1.73-3.5a.84.84,0,0,0-1.51,0Z"/></g><path class="aa75241f-b957-4fd4-90ab-6cb65853a511" d="M477.26,464.9H332.71l8,14.78-8,14.78H477.26a4.4,4.4,0,0,0,4.39-4.39V469.29A4.4,4.4,0,0,0,477.26,464.9Z"/><circle class="aa75241f-b957-4fd4-90ab-6cb65853a511" cx="310.4" cy="241.16" r="51.94"/><path class="b2e06844-da46-431b-b883-c16e8f2106f9" d="M497.23,93.43c-16.15-13.75-40.16-11.28-55,4l-5.8,6-5.81-6c-14.79-15.29-38.83-17.76-55-4a42.31,42.31,0,0,0-2.91,61.26l57,58.87a9.24,9.24,0,0,0,13.35,0l57-58.87a42.3,42.3,0,0,0-2.89-61.26Z"/><path class="b2e06844-da46-431b-b883-c16e8f2106f9" d="M336.64,152.86a18,18,0,0,1,4.92-.41.93.93,0,0,1,.1,1.84,9,9,0,0,0-4.33,1.87c-3.86,3.16-3.75,9.13-7.42,9.72a4,4,0,0,1-3.46-1.11c-1.23-1.39-.71-3.58-.59-4.09C326.92,156.18,333,153.66,336.64,152.86Z"/><path class="b2e06844-da46-431b-b883-c16e8f2106f9" d="M341.91,135.63a29.87,29.87,0,0,1,5.71,5.69,1.51,1.51,0,0,1-2.17,2.07,14.67,14.67,0,0,0-6.92-3.4c-8-1.45-15.31,5-19.92,1.07a6.48,6.48,0,0,1-2.28-5.48c.42-3,3.69-4.68,4.45-5.07C327.49,127.07,337.11,132,341.91,135.63Z"/><path class="b2e06844-da46-431b-b883-c16e8f2106f9" d="M532,181.09a22.06,22.06,0,0,0-7,1.78,1,1,0,0,0,.59,1.88,11.55,11.55,0,0,1,6.79.4c5.6,2.26,7.63,9.19,12.09,8.54a4.82,4.82,0,0,0,3.59-2.54c.92-2.05-.47-4.39-.8-4.94C544.4,181.4,536.41,180.71,532,181.09Z"/><path class="b2e06844-da46-431b-b883-c16e8f2106f9" d="M508.71,187.86a34.41,34.41,0,0,0-10.92-3.21,1.52,1.52,0,0,0-.68,3,18,18,0,0,1,8.9,6c5.69,7.48,2.87,18.37,9.35,21.06a7.48,7.48,0,0,0,6.82-.54c2.87-2,2.88-6.24,2.88-7.23C525.08,198.2,515,190.89,508.71,187.86Z"/><path class="b2e06844-da46-431b-b883-c16e8f2106f9" d="M515.82,174.8a22.28,22.28,0,0,1-6.93.32,1,1,0,0,1,0-2,11.37,11.37,0,0,0,6.16-2.3c4.72-3.76,4.69-11,9.15-11.63a4.75,4.75,0,0,1,4.16,1.41c1.47,1.7.81,4.34.65,5C527.64,170.94,520.18,173.89,515.82,174.8Z"/></svg>