<svg id="f048b9d9-5bf4-48eb-87bf-b628e6618891" data-name="‘ëîé_1" xmlns="http://www.w3.org/2000/svg" viewBox="0 0 2974.8 1154.87"><defs><style>.bf1cc348-8f74-4d9d-83a5-d4b2c2cdb3d4{fill:#ebf3fa;}.b7e1f2c2-3bcf-4e62-a99d-da20bf715742{fill:#dfebfa;}.b29e6bd1-477d-4f53-8b33-cdca612568a6{fill:#eef6ff;}.af957257-eece-4488-af29-ad6da4052d16{opacity:0.4;}.a67a01e2-6761-48f7-8349-3c09994b59ab{fill:#afcdfb;}.b1c2fdf7-cf6c-4cf2-9116-5f7214517ac5{fill:#d4e4f8;}.e7fc8f03-c40d-44f5-ac8b-a2ad414ad944,.fc245fc5-590b-4d73-9676-864d19642e5b{fill:#94b0ed;}.baaea56f-0847-4b80-b2f2-f87d8fe64efa{fill:#aec3ff;}.e7fc8f03-c40d-44f5-ac8b-a2ad414ad944{opacity:0.6;}.f0817c4a-3d31-47bc-9585-7c1292fd51d0{fill:#ef7e29;}.a430151c-caa2-441e-acf2-30681a61ea94{fill:#f99746;}.bbc549fe-1c05-4094-ba0b-1fb427a20b27{fill:#ffb27d;}.bd4050ad-5423-4765-9d6a-d896c12f2072{fill:#f4a671;}.b1b8f09f-8920-4cd1-a2c8-f7f630eb6d56{fill:#2c3a64;}.e04ec690-cf30-4864-a466-2043fee8ebc0{fill:#213f7a;}.f1a8d0ce-af5f-4388-b16b-2224356039f5{fill:#789cdd;}.b76a6411-4bac-4692-90c6-0a5b30b4283b{fill:#cadaff;}.afeba41a-72a3-4bd2-9d21-7bb9cdb365a3{fill:#7a9edd;}.e3f35a31-b8c7-4821-886e-9915034ca0be{fill:#233862;}.a43546a6-354e-49fb-a9f5-03511a097cbd{fill:#fff;}.a056594b-261c-44fb-9244-31b13a85e70e{fill:#ed7d2b;}.fea926ac-d0a1-460e-8a6a-9e0fa39cc130{fill:#2a4e96;}.a57b6c54-3d66-4476-81a8-638a837664d2{fill:#ed985f;}.aa06b527-8de5-4615-bf92-a16f768c2199{fill:#2e3552;}.ae32d47d-1f45-4bc1-950a-95279dd0d958{fill:#adcbff;}.ebb4fd44-3bc7-4b26-bc85-e99e9279c3a6{fill:#c5dbff;}.e2f7bc55-333f-4474-9de1-0f37bcc33724{fill:#f9ddbf;}.b88aa5ea-cf8b-448a-84f2-17a5bfb7284a{fill:#739cf3;}.f8db6659-21ae-47df-997a-d241ce6960a2{fill:#ffa969;}.fbf0ccb2-125d-4193-b461-baf92b8f8631{fill:#a9453d;}.f9e7d674-c540-44ce-b82f-e53fdb9df643{fill:#c0783d;}.ad20026f-069d-4a3a-b77f-f38518359c3e{fill:#485ca6;}</style></defs><path class="bf1cc348-8f74-4d9d-83a5-d4b2c2cdb3d4" d="M3059.18,1311.57c-1.29-48.58-8.6-87.26-20.39-118.38-18.81-49.71-49-80.18-84.22-101q-8.07-4.77-16.46-8.92-3.46-1.71-7-3.35c-10.35-4.8-21-9-31.77-12.82-5.6-2-11.25-3.87-16.89-5.68q-3.25-1-6.52-2c-18.77-5.84-37.66-11-56-16.54q-10-3-19.74-6.28c-6.25-2.1-12.39-4.29-18.39-6.63a251.55,251.55,0,0,1-30.7-14.16c-.64-.34-1.27-.7-1.91-1.06q-4-2.26-7.88-4.73c-15.91-10.1-29.85-22.61-40.93-38.86-.58-.86-1.17-1.73-1.73-2.61-1.51-2.32-2.95-4.71-4.34-7.17-8.71-15.56-15.11-34.17-18.56-56.78a262.57,262.57,0,0,1-2.7-29.16c-6.19-160.08-169.77-524-621.46-450q-30.14,4.93-62,12.54-17.45,4.17-35.43,9.18C1587.08,549.63,1678.73,718,1159.78,634.2q-29.64-4.77-62-10.67-10.44-1.9-21.18-3.93C942.66,594.34,573.52,587,307.41,854.68q-9.74,9.78-18.65,19.78-13.33,14.94-25,30.33c-.58.76-1.16,1.52-1.72,2.29a462.94,462.94,0,0,0-27.91,41.83v0q-5,8.42-9.52,16.91-4,7.44-7.64,14.94a459.6,459.6,0,0,0-23.52,57.88c-1.43,4.37-2.81,8.74-4.11,13.12q-1.43,4.76-2.74,9.53c-1.14,4.13-2.21,8.26-3.25,12.41-.7,2.85-1.38,5.71-2,8.57-.43,1.86-.85,3.71-1.23,5.55q-1.77,8.09-3.24,16.2-2.91,15.95-4.81,32c-1.91,15.9-3.08,31.82-3.63,47.7q-.36,10.36-.35,20.72c0,122.93,36.6,242.44,75.18,334.31q4.95,11.79,9.93,22.94l1.65,3.72c.68,1.5,1.35,3,2,4.48H262c0,.06.06.12.08.19l.17.41v-.6h2765c.62-2.75,1.22-5.49,1.82-8.2C3052,1457.34,3060.87,1375.8,3059.18,1311.57Z" transform="translate(-142.2 -415.6)"/><path class="b7e1f2c2-3bcf-4e62-a99d-da20bf715742" d="M3038.79,1193.19c-18.81-49.71-49-80.18-84.22-101q-8.07-4.77-16.46-8.92-3.46-1.71-7-3.35c-10.35-4.8-21-9-31.77-12.82l-23.41-7.72c-18.77-5.84-37.66-11-56-16.54q-10-3-19.74-6.28c-6.25-2.1-12.39-4.29-18.39-6.63a251.55,251.55,0,0,1-30.7-14.16c-.64-.34-1.27-.7-1.91-1.06q-4-2.26-7.88-4.73c-15.91-10.1-29.85-22.61-40.93-38.86-.58-.86-1.17-1.73-1.73-2.61-1.51-2.32-2.95-4.71-4.34-7.17-8.71-15.56-15.11-34.17-18.56-56.78h-72.95v101.93h-51.73v25.68h-55.78V987.91H2395V867.78h-15.7v-12h-2.25v12h-13v0H2299V855.81h-2.25v11.94h-16.95v60.42l-84.29-.33v37.29H2124V734.6H1912.28v247h-64.66V848H1635.89v721.84H3024.65c.41-1.94.81-3.87,1.22-5.79.17-.8.34-1.61.5-2.41q2.45-11.62,4.68-22.94c18-90.88,26.74-165.55,28.13-227.16C3057.89,1263,3050.58,1224.31,3038.79,1193.19Z" transform="translate(-142.2 -415.6)"/><polygon class="b7e1f2c2-3bcf-4e62-a99d-da20bf715742" points="1493.89 1154.27 1493.89 1146.07 1493.89 589.75 1493.7 589.75 1390.87 589.75 1387.56 589.75 1387.56 1146.07 1387.56 1154.27 1398.84 1154.27 1493.7 1154.27 1493.89 1154.27"/><rect class="b7e1f2c2-3bcf-4e62-a99d-da20bf715742" x="2486.45" y="441.38" width="3.9" height="48.42"/><rect class="b7e1f2c2-3bcf-4e62-a99d-da20bf715742" x="1784.14" y="301.74" width="2.53" height="17.27"/><rect class="b7e1f2c2-3bcf-4e62-a99d-da20bf715742" x="1837.73" y="301.74" width="2.53" height="17.27"/><rect class="b7e1f2c2-3bcf-4e62-a99d-da20bf715742" x="1960.6" y="301.74" width="2.53" height="17.27"/><rect class="b7e1f2c2-3bcf-4e62-a99d-da20bf715742" x="1912.57" y="301.74" width="2.53" height="17.27"/><path class="b7e1f2c2-3bcf-4e62-a99d-da20bf715742" d="M1540.92,1561.67l-7.85-556.33-1.19-84.54H1476v-111l-2.58-1.33h-16.67v-.06h-96.93v.06h-.08v16.64h.08v11.45h-.08v16.64h.08v11.48h-.08V881.3h.08v.07l-10.27-.07V794.24H1240.77v11h-.06v16.63h.06v14.63h-.06v16.64h.06v11.48h-.06V881.3h.06v10.63h-.06v16.65h.06v10.63h-.06v16.64h.06v10h-.06v10.57h.06v1.15H1118.16v95.25h-45.8v24H1023v-41.32H934.14V923.25h-13.9V912.06h-2v11.19H906.73v0H849.11V912.06h-2v11.16h-15v56.45l-74.63-.31v34.85H694.21V798.83H506.76v230.73H449.51V904.79H262.06v665.27l.17.41v-.6H1541Z" transform="translate(-142.2 -415.6)"/><path class="b7e1f2c2-3bcf-4e62-a99d-da20bf715742" d="M262.23,1051.78v518.69l-.17-.41c0-.07-.06-.13-.08-.19-1.17-2.7-2.32-5.44-3.49-8.2-41.36-98.22-85.67-235.08-90.05-378a545.92,545.92,0,0,1,8.44-79.66,490.68,490.68,0,0,1,12.48-52.26Z" transform="translate(-142.2 -415.6)"/><rect class="b29e6bd1-477d-4f53-8b33-cdca612568a6" x="412.79" y="383.22" width="139.22" height="36.51"/><rect class="b29e6bd1-477d-4f53-8b33-cdca612568a6" x="412.79" y="439.42" width="139.22" height="36.51"/><rect class="b29e6bd1-477d-4f53-8b33-cdca612568a6" x="412.79" y="496.79" width="139.22" height="36.51"/><rect class="b29e6bd1-477d-4f53-8b33-cdca612568a6" x="412.79" y="555.07" width="139.22" height="36.51"/><rect class="b29e6bd1-477d-4f53-8b33-cdca612568a6" x="412.79" y="611.3" width="139.22" height="36.51"/><rect class="b29e6bd1-477d-4f53-8b33-cdca612568a6" x="1098.6" y="378.65" width="69.61" height="22.17"/><rect class="b29e6bd1-477d-4f53-8b33-cdca612568a6" x="1098.6" y="412.78" width="69.61" height="22.17"/><rect class="b29e6bd1-477d-4f53-8b33-cdca612568a6" x="1098.6" y="447.62" width="69.61" height="22.17"/><rect class="b29e6bd1-477d-4f53-8b33-cdca612568a6" x="1098.6" y="483.02" width="69.61" height="22.17"/><rect class="b29e6bd1-477d-4f53-8b33-cdca612568a6" x="1098.6" y="517.17" width="69.61" height="22.17"/><rect class="b29e6bd1-477d-4f53-8b33-cdca612568a6" x="1098.6" y="554.76" width="69.61" height="22.17"/><rect class="b29e6bd1-477d-4f53-8b33-cdca612568a6" x="1098.6" y="588.88" width="69.61" height="22.17"/><rect class="b29e6bd1-477d-4f53-8b33-cdca612568a6" x="1098.6" y="623.72" width="69.61" height="22.17"/><rect class="b29e6bd1-477d-4f53-8b33-cdca612568a6" x="1098.6" y="659.12" width="69.61" height="22.17"/><rect class="b29e6bd1-477d-4f53-8b33-cdca612568a6" x="1098.6" y="693.27" width="69.61" height="22.17"/><rect class="b29e6bd1-477d-4f53-8b33-cdca612568a6" x="1217.75" y="393.19" width="69.61" height="22.17"/><rect class="b29e6bd1-477d-4f53-8b33-cdca612568a6" x="1217.75" y="427.32" width="69.61" height="22.17"/><rect class="b29e6bd1-477d-4f53-8b33-cdca612568a6" x="1217.75" y="462.16" width="69.61" height="22.17"/><rect class="b29e6bd1-477d-4f53-8b33-cdca612568a6" x="1217.75" y="497.56" width="69.61" height="22.17"/><rect class="b29e6bd1-477d-4f53-8b33-cdca612568a6" x="1217.75" y="531.71" width="69.61" height="22.17"/><rect class="b7e1f2c2-3bcf-4e62-a99d-da20bf715742" x="998.8" y="497.56" width="3.45" height="45.24"/><rect class="b7e1f2c2-3bcf-4e62-a99d-da20bf715742" x="1057" y="458.71" width="5.37" height="87.61"/><rect class="b7e1f2c2-3bcf-4e62-a99d-da20bf715742" x="377.01" y="367.09" width="2.24" height="16.13"/><rect class="b7e1f2c2-3bcf-4e62-a99d-da20bf715742" x="424.46" y="367.09" width="2.24" height="16.13"/><rect class="b7e1f2c2-3bcf-4e62-a99d-da20bf715742" x="533.24" y="367.09" width="2.24" height="16.13"/><rect class="b7e1f2c2-3bcf-4e62-a99d-da20bf715742" x="1109.37" y="366.2" width="1.73" height="12.45"/><rect class="b7e1f2c2-3bcf-4e62-a99d-da20bf715742" x="1191.03" y="366.2" width="1.73" height="12.45"/><rect class="b7e1f2c2-3bcf-4e62-a99d-da20bf715742" x="490.71" y="367.09" width="2.24" height="16.13"/><rect class="b29e6bd1-477d-4f53-8b33-cdca612568a6" x="1771.14" y="340.52" width="138.24" height="28.15"/><rect class="b29e6bd1-477d-4f53-8b33-cdca612568a6" x="1771.14" y="383.85" width="138.24" height="28.15"/><rect class="b29e6bd1-477d-4f53-8b33-cdca612568a6" x="1771.14" y="428.08" width="138.24" height="28.15"/><rect class="b29e6bd1-477d-4f53-8b33-cdca612568a6" x="1771.14" y="473.02" width="138.24" height="28.15"/><rect class="b29e6bd1-477d-4f53-8b33-cdca612568a6" x="1771.14" y="516.38" width="138.24" height="28.15"/><g class="af957257-eece-4488-af29-ad6da4052d16"><rect class="b29e6bd1-477d-4f53-8b33-cdca612568a6" x="1560.81" y="445.48" width="144.19" height="32.86"/><rect class="b29e6bd1-477d-4f53-8b33-cdca612568a6" x="1560.81" y="496.06" width="144.19" height="32.86"/><rect class="b29e6bd1-477d-4f53-8b33-cdca612568a6" x="1560.81" y="547.69" width="144.19" height="32.86"/><rect class="b29e6bd1-477d-4f53-8b33-cdca612568a6" x="1560.81" y="600.14" width="144.19" height="32.86"/><rect class="b29e6bd1-477d-4f53-8b33-cdca612568a6" x="1560.81" y="650.75" width="144.19" height="32.86"/></g><path class="a67a01e2-6761-48f7-8349-3c09994b59ab" d="M3031.05,1538.73q-2.24,11.3-4.68,22.94c-.16.8-.33,1.61-.5,2.41h-8.11l-909.79,1.3H254.85l-1.65-3.72q-5-11.14-9.93-22.94Z" transform="translate(-142.2 -415.6)"/><polygon class="b1c2fdf7-cf6c-4cf2-9116-5f7214517ac5" points="862.84 194.97 862.84 1132.42 831.84 1132.42 831.84 193.18 862.84 194.97"/><polygon class="b1c2fdf7-cf6c-4cf2-9116-5f7214517ac5" points="1988.43 1.04 1988.43 1132.42 1957.42 1132.42 1957.42 3.48 1988.43 1.04"/><path class="fc245fc5-590b-4d73-9676-864d19642e5b" d="M487.66,1543.65a13.61,13.61,0,0,1-12.77-8.91L342.38,1175.33a13.61,13.61,0,0,1,25.55-9.41l132.5,359.4a13.61,13.61,0,0,1-8.06,17.48A13.4,13.4,0,0,1,487.66,1543.65Z" transform="translate(-142.2 -415.6)"/><path class="fc245fc5-590b-4d73-9676-864d19642e5b" d="M588.41,1543.65a13.61,13.61,0,0,1-12.77-8.91L443.13,1175.33a13.61,13.61,0,0,1,25.54-9.41l132.51,359.4a13.61,13.61,0,0,1-8.06,17.48A13.4,13.4,0,0,1,588.41,1543.65Z" transform="translate(-142.2 -415.6)"/><polygon class="fc245fc5-590b-4d73-9676-864d19642e5b" points="342.52 820.37 235.65 829.9 203.8 755.03 316.65 750.94 342.52 820.37"/><path class="fc245fc5-590b-4d73-9676-864d19642e5b" d="M1037.67,1562.71H407.8A21.86,21.86,0,0,1,386,1540.92h0a21.85,21.85,0,0,1,21.79-21.78h629.87a21.84,21.84,0,0,1,21.78,21.78h0A21.85,21.85,0,0,1,1037.67,1562.71Z" transform="translate(-142.2 -415.6)"/><path class="fc245fc5-590b-4d73-9676-864d19642e5b" d="M564.35,1301.32H396.9a5.45,5.45,0,0,1,0-10.9H563.83l35.09-6.8H496.28a5.45,5.45,0,0,1,0-10.9H655.57a5.45,5.45,0,0,1,1,10.8l-91.22,17.7A5.91,5.91,0,0,1,564.35,1301.32Z" transform="translate(-142.2 -415.6)"/><path class="baaea56f-0847-4b80-b2f2-f87d8fe64efa" d="M2918.63,997.81l-37.46,473.55-.24,3.12a43.65,43.65,0,0,1-46.82,40l-86.35-6.82a43.64,43.64,0,0,1-40-46.82l37.7-476.67a43.65,43.65,0,0,1,46.81-40L2832,947.3l46.71,3.7A43.64,43.64,0,0,1,2918.63,997.81Z" transform="translate(-142.2 -415.6)"/><path class="fc245fc5-590b-4d73-9676-864d19642e5b" d="M2909,1472v70.22a21.15,21.15,0,0,1-21.08,21.09H2700.32a21.15,21.15,0,0,1-21.08-21.09V1472a21.14,21.14,0,0,1,21.08-21.08H2887.9A21.14,21.14,0,0,1,2909,1472Z" transform="translate(-142.2 -415.6)"/><path class="e7fc8f03-c40d-44f5-ac8b-a2ad414ad944" d="M2918.63,997.81l-37.46,473.55c-25.8-3.34-49.57-20.46-49.57-20.46s27.79-346.16,35.65-423.71c6.27-61.69-23-76.44-35.29-79.89l46.71,3.7A43.64,43.64,0,0,1,2918.63,997.81Z" transform="translate(-142.2 -415.6)"/><g id="a1794de7-24f9-43ad-86df-16efcaea5f2b" data-name="man"><rect class="f0817c4a-3d31-47bc-9585-7c1292fd51d0" x="1739.81" y="1034.56" width="135.03" height="113.85" rx="7.93"/><rect class="a430151c-caa2-441e-acf2-30681a61ea94" x="1792.34" y="1034.57" width="135.03" height="113.85" rx="7.93"/><path class="bbc549fe-1c05-4094-ba0b-1fb427a20b27" d="M1935.51,1255.57c-4.07,7.45-14.21,11.77-26.19,15-1.34.37-2.69.72-4.07,1.07-21,5.24-49.15,2.23-57.31,13.15-9,12.14-19.83,75.88-19.83,75.88-13,5.17-12.83,2.64-12.83,2.64-4-17.23-4.29-69.63-3.35-84.07,1.08-16.58,35.13-39.84,64.43-56.87,22.37-13,42-22.41,42-22.41.61.13,1.21.27,1.79.42C1945.94,1207,1946.71,1235.07,1935.51,1255.57Z" transform="translate(-142.2 -415.6)"/><path class="f0817c4a-3d31-47bc-9585-7c1292fd51d0" d="M1920.12,1200.43c-2.77,23.19-7.22,57.46-10.8,70.19-1.34.37-2.69.72-4.07,1.07a.43.43,0,0,0,0,0c-4-24.31-24.49-45-28.88-49.22,22.37-13,42-22.41,42-22.41C1918.94,1200.14,1919.54,1200.28,1920.12,1200.43Z" transform="translate(-142.2 -415.6)"/><path class="bbc549fe-1c05-4094-ba0b-1fb427a20b27" d="M1954.6,1185.82s-30.9,33.9-55.79,35.62a56.79,56.79,0,0,1,10.17-18.06c-1.25-2.07-2.38-4-3.42-5.84a157.08,157.08,0,0,1-8.48-16.84l19.94-33.65c.45,1.24.93,2.44,1.43,3.61a69,69,0,0,0,3.49,7.1c.61,1.07,1.23,2.12,1.87,3.12C1936.54,1180.83,1954.6,1185.82,1954.6,1185.82Z" transform="translate(-142.2 -415.6)"/><path class="bd4050ad-5423-4765-9d6a-d896c12f2072" d="M1905.56,1197.54a157.08,157.08,0,0,1-8.48-16.84l19.94-33.65c.45,1.24.93,2.44,1.43,3.61C1920.58,1159.27,1923.3,1180.22,1905.56,1197.54Z" transform="translate(-142.2 -415.6)"/><path class="bbc549fe-1c05-4094-ba0b-1fb427a20b27" d="M1893.11,1185.51s35.22-18.58,23.31-40.34-15.38-38.81-38.37-27.87-22.79,21.62-20.58,29.85S1883.64,1189.78,1893.11,1185.51Z" transform="translate(-142.2 -415.6)"/><path class="b1b8f09f-8920-4cd1-a2c8-f7f630eb6d56" d="M1917.24,1146.67s-20.52-25.67-52.2-8.21c-21.71,12-22.29-13.33-22-17.61,0,0,17.09-8.49,34.91-16.75C1915.33,1086.76,1917.67,1140.21,1917.24,1146.67Z" transform="translate(-142.2 -415.6)"/><path class="bbc549fe-1c05-4094-ba0b-1fb427a20b27" d="M1958.08,1378.59a6.12,6.12,0,0,1-1.91-2.53c-.39-1.25-18.8-1-57.8-107.69-6.79-18.56-2.27-46.5,4.47-58.37l5-8.3c8.34-.89,17.15-5.08,24.14-11.79a17,17,0,0,1,6.56-3.83c7-2.28,14.63-.73,16.09-.26,26.11,9.1,46.4,46.57,60.52,101.82,8.81,34.82,21,55.66,29.32,85.74a236.48,236.48,0,0,1,6.25,30.07C2052.15,1413.68,1971.89,1390.8,1958.08,1378.59Z" transform="translate(-142.2 -415.6)"/><path class="bd4050ad-5423-4765-9d6a-d896c12f2072" d="M1965.85,1424.6c-9.29,1.24-22.78,1.25-37.61.82-40.37-1.19-91-5.77-94,2.22-19.37,52.14-89,93.12-90.21,112.46.23,1.25-17.68-8.33-17.12-8.73,0,0,5.67-2.37,61.86-155.19,5.15-14,63.79-19.38,99.27-22.2,22.66-1.82,40.33-2.52,40.33-2.52s24.18-4,48.94-2.3S2000.39,1420,1965.85,1424.6Z" transform="translate(-142.2 -415.6)"/><path class="bbc549fe-1c05-4094-ba0b-1fb427a20b27" d="M1815.28,1363.36s17.53,6.33,25,2.6.93-13.36-4-13.36S1820.25,1352.79,1815.28,1363.36Z" transform="translate(-142.2 -415.6)"/><path class="e04ec690-cf30-4864-a466-2043fee8ebc0" d="M1975.64,1424.6c-9.29,1.24-22.78,1.25-37.62.82,3.63-11.72,13.19-32.84-.9-48.49,0,0-15.32-21.06-27.62-24.5,22.65-1.81,28.71-1,28.71-1s24.18-4,48.94-2.3S2010.19,1420,1975.64,1424.6Z" transform="translate(-142.2 -415.6)"/><path class="a430151c-caa2-441e-acf2-30681a61ea94" d="M2044.44,1373.38l-.4.35-86,4.86a6.14,6.14,0,0,1-1.91-2.54c-.06-.19-.58-.35-1.54-.9-2.75-1.56-9.16-6.23-19.48-23.66-9.14-15.45-21.35-40.92-36.78-83.12-6.79-18.56-2.27-46.5,4.47-58.37a12.57,12.57,0,0,0,11.06-.25c14.83-7.19,39.67-24.26,40.69-23.93,26.12,9.1,46.41,46.57,60.53,101.82C2023.93,1322.46,2036.11,1343.3,2044.44,1373.38Z" transform="translate(-142.2 -415.6)"/><path class="f0817c4a-3d31-47bc-9585-7c1292fd51d0" d="M1993.56,1267.84l-42.13,39.54-25.73-39.64,9.45,83.75c10.32,17.43,16.73,22.1,19.48,23.66,23.8,1.34,58.36.81,61.13-13.33C2020,1340.1,1993.56,1267.84,1993.56,1267.84Z" transform="translate(-142.2 -415.6)"/><path class="bbc549fe-1c05-4094-ba0b-1fb427a20b27" d="M2031,1447.41c-77.28,18.4-149.48-27.29-152.16-14.24-8.3,40.42-50.25,99-51.23,106-.15,1-18.5,2.6-18.5,2.6s18.08-142.78,33.36-161.27c15.79-19.09,157.72-11.41,157.72-11.41C2055.49,1358.11,2065.29,1439.23,2031,1447.41Z" transform="translate(-142.2 -415.6)"/><path class="e04ec690-cf30-4864-a466-2043fee8ebc0" d="M1940.19,1367.49s37.77,39.1,42,43,20.28,2.45,20.28,2.45-17.6,2.33-17.6,5.36,11.19,35.19,15.38,35.19,35.43-1.86,42.89-5.59,17.25-45.22,2.1-78.32L2033,1340.16S2015.76,1365.44,1940.19,1367.49Z" transform="translate(-142.2 -415.6)"/><path class="fc245fc5-590b-4d73-9676-864d19642e5b" d="M1940.87,1305.16c-3.45-12.87-17.09-20.4-30.46-16.81a25.92,25.92,0,0,0-9.11,4.5l-5.27,3.82.64.82a23.81,23.81,0,0,0-4.23,20.66c3.46,12.87,17.09,20.39,30.47,16.81.83-.23,1.65-.49,2.45-.79l.61.78,6-4.42h0A24.13,24.13,0,0,0,1940.87,1305.16Z" transform="translate(-142.2 -415.6)"/><path class="baaea56f-0847-4b80-b2f2-f87d8fe64efa" d="M1887.45,1321.78c-3.45-12.87,4.59-26.21,18-29.79s27,3.93,30.46,16.8-4.59,26.21-18,29.8S1890.9,1334.65,1887.45,1321.78Z" transform="translate(-142.2 -415.6)"/><path class="f1a8d0ce-af5f-4388-b16b-2224356039f5" d="M1916.32,1315.08a5.59,5.59,0,0,0-7.5-4.33c-1.53.56-41.83,25.78-41.83,25.78l8.62,10.68,39.11-27.92A4.65,4.65,0,0,0,1916.32,1315.08Z" transform="translate(-142.2 -415.6)"/><path class="bbc549fe-1c05-4094-ba0b-1fb427a20b27" d="M1995.33,1366.74c-18.19,18.17-101.62-33.57-101.62-33.57l9.43-16.43,54.43,12.7a286.13,286.13,0,0,1-31.87-61.7c-8.49-22.85-11-38.53-11-38.53-4.66-18.64,36.4-42.25,56.41-23.3,6.67,6.32,13.62,24.3,19.23,46.13C2001.53,1295.65,2007.44,1354.62,1995.33,1366.74Z" transform="translate(-142.2 -415.6)"/><path class="bd4050ad-5423-4765-9d6a-d896c12f2072" d="M1987.69,1242.43c-19.25,4.53-57.31,14.7-62,25.3,0,0,35.52-15.25,70.21,9.68Z" transform="translate(-142.2 -415.6)"/><path class="a430151c-caa2-441e-acf2-30681a61ea94" d="M1990.32,1252c-36.69-3.44-60.81,12.91-64.62,15.7-8.49-22.85-11-38.53-11-38.53-4.66-18.64,36.4-42.25,56.41-23.3C1977.76,1212.23,1984.71,1230.21,1990.32,1252Z" transform="translate(-142.2 -415.6)"/><path class="b1b8f09f-8920-4cd1-a2c8-f7f630eb6d56" d="M1747.78,1563.45h-9.53c-3.2-.5-5.56-1.43-8.83-1.86-5-.65-7.27,1.39-7.73,1.86l-.09.1h-40.51c-1-1.46,0-4.83.92-7.31a5.74,5.74,0,0,1,3.79-3.47c4.3-1.24,12.77-2.35,20.52-9.37,4.37-3.94,21.08-14.5,21.08-14.5l.08,0c.37,0,2.12.54,9.72,7,3.93,3.31,10.62-4.68,10.62-4.68a9.53,9.53,0,0,1,2.2,3,10.14,10.14,0,0,1,.87,6.22c-.61,3.65,1.34,10.43,2.9,15,1,2.78,1.74,4.75,1.74,4.75S1756,1562.42,1747.78,1563.45Z" transform="translate(-142.2 -415.6)"/><path class="b1b8f09f-8920-4cd1-a2c8-f7f630eb6d56" d="M1832.46,1563.45h-10c-3.37-.53-5.86-1.51-9.31-2-5.25-.69-7.67,1.46-8.15,2l-.09.1h-42.73c-1.07-1.54,0-5.09,1-7.71a6.09,6.09,0,0,1,4-3.66c4.53-1.31,13.46-2.48,21.64-9.88,4.61-4.16,22.23-15.29,22.23-15.29l.09,0c.39,0,2.23.57,10.24,7.34,4.15,3.49,11.21-4.94,11.21-4.94a10.16,10.16,0,0,1,2.31,3.14,10.59,10.59,0,0,1,.92,6.56c-.64,3.85,1.42,11,3.06,15.85,1,2.93,1.84,5,1.84,5S1841.12,1562.36,1832.46,1563.45Z" transform="translate(-142.2 -415.6)"/><path class="fc245fc5-590b-4d73-9676-864d19642e5b" d="M1910.1,1328.25c-3.76-14-18.59-22.19-33.14-18.29a28.15,28.15,0,0,0-9.91,4.9l-5.73,4.16.7.89a25.83,25.83,0,0,0-4.6,22.47c3.75,14,18.59,22.19,33.14,18.29.91-.25,1.8-.54,2.66-.86l.66.85,6.5-4.81h0A26.26,26.26,0,0,0,1910.1,1328.25Z" transform="translate(-142.2 -415.6)"/><path class="baaea56f-0847-4b80-b2f2-f87d8fe64efa" d="M1852,1346.33c-3.75-14,5-28.51,19.54-32.41s29.39,4.29,33.14,18.29-5,28.51-19.54,32.41S1855.74,1360.33,1852,1346.33Z" transform="translate(-142.2 -415.6)"/><path class="fc245fc5-590b-4d73-9676-864d19642e5b" d="M1887,1335.89a8.68,8.68,0,0,0-10.75-5.94,8.91,8.91,0,0,0-3.22,1.59l-1.86,1.35.23.29a8.4,8.4,0,0,0-1.5,7.29,8.69,8.69,0,0,0,10.76,5.94,8,8,0,0,0,.87-.28l.21.28,2.11-1.56h0A8.49,8.49,0,0,0,1887,1335.89Z" transform="translate(-142.2 -415.6)"/><path class="b76a6411-4bac-4692-90c6-0a5b30b4283b" d="M1868.1,1341.76a8.86,8.86,0,1,1,10.76,5.93A8.7,8.7,0,0,1,1868.1,1341.76Z" transform="translate(-142.2 -415.6)"/></g><path class="fc245fc5-590b-4d73-9676-864d19642e5b" d="M2104.56,1548.35c5.07-12.32-1.21-26.58-14-31.84a25.72,25.72,0,0,0-10-2l-6.51-.16v1a23.8,23.8,0,0,0-15.89,13.85c-5.06,12.33,1.21,26.59,14,31.85.8.33,1.61.61,2.42.86v1l7.43.11h0A24.11,24.11,0,0,0,2104.56,1548.35Z" transform="translate(-142.2 -415.6)"/><path class="baaea56f-0847-4b80-b2f2-f87d8fe64efa" d="M2052,1529.15c5.06-12.32,19.55-18.05,32.35-12.78s19.08,19.52,14,31.84-19.55,18-32.36,12.79S2047,1541.48,2052,1529.15Z" transform="translate(-142.2 -415.6)"/><path class="afeba41a-72a3-4bd2-9d21-7bb9cdb365a3" d="M2079,1541.34a5.59,5.59,0,0,0-3.33-8c-1.56-.48-48.9-4.88-48.9-4.88l.38,13.71,48,1.54A4.63,4.63,0,0,0,2079,1541.34Z" transform="translate(-142.2 -415.6)"/><path class="fc245fc5-590b-4d73-9676-864d19642e5b" d="M2066.09,1548c5.51-13.41-1.31-28.92-15.24-34.64a28,28,0,0,0-10.85-2.13l-7.08-.17v1.14a25.82,25.82,0,0,0-17.28,15.07c-5.51,13.4,1.31,28.91,15.24,34.64a27.7,27.7,0,0,0,2.64.93V1564l8.09.12h0A26.24,26.24,0,0,0,2066.09,1548Z" transform="translate(-142.2 -415.6)"/><path class="baaea56f-0847-4b80-b2f2-f87d8fe64efa" d="M2008.93,1527.15c5.51-13.4,21.27-19.63,35.2-13.91s20.75,21.24,15.24,34.64-21.27,19.64-35.2,13.91S2003.42,1540.56,2008.93,1527.15Z" transform="translate(-142.2 -415.6)"/><path class="fc245fc5-590b-4d73-9676-864d19642e5b" d="M2043.07,1540.07a8.68,8.68,0,0,0-5-11.24,8.94,8.94,0,0,0-3.52-.69l-2.3-.06v.37a8.38,8.38,0,0,0-5.61,4.89,8.69,8.69,0,0,0,5,11.25,8.57,8.57,0,0,0,.85.3v.35l2.62,0h0A8.53,8.53,0,0,0,2043.07,1540.07Z" transform="translate(-142.2 -415.6)"/><path class="b76a6411-4bac-4692-90c6-0a5b30b4283b" d="M2024.51,1533.29a8.86,8.86,0,1,1,5,11.25A8.69,8.69,0,0,1,2024.51,1533.29Z" transform="translate(-142.2 -415.6)"/><path class="f0817c4a-3d31-47bc-9585-7c1292fd51d0" d="M1222.43,1237.25c2.4-15.22,17.16-25.54,33-23a30,30,0,0,1,11,4.06L1273,1222l-.64,1a27.43,27.43,0,0,1,7.38,23.23c-2.39,15.22-17.15,25.54-33,23-1-.15-2-.36-2.91-.6l-.61,1-7.4-4.36h0A27.93,27.93,0,0,1,1222.43,1237.25Z" transform="translate(-142.2 -415.6)"/><path class="a430151c-caa2-441e-acf2-30681a61ea94" d="M1285.89,1249.84c2.4-15.22-8.48-29.58-24.3-32.07s-30.57,7.83-33,23.06,8.49,29.57,24.3,32.06S1283.5,1265.06,1285.89,1249.84Z" transform="translate(-142.2 -415.6)"/><path class="f0817c4a-3d31-47bc-9585-7c1292fd51d0" d="M1251.88,1245.66a6.47,6.47,0,0,1,8.09-5.9c1.82.46,51.25,24.54,51.25,24.54l-8.61,13.33-48.38-27.33A5.34,5.34,0,0,1,1251.88,1245.66Z" transform="translate(-142.2 -415.6)"/><path class="bbc549fe-1c05-4094-ba0b-1fb427a20b27" d="M1282.28,1262.56c-.74-.11-16.25,7.36-24.19-3.58-3.64-5-.88-9.74,2.62-11.11,2.68-1,7.08,2.07,8.81,3.84C1272.39,1254.64,1282.28,1262.56,1282.28,1262.56Z" transform="translate(-142.2 -415.6)"/><path class="e3f35a31-b8c7-4821-886e-9915034ca0be" d="M1236.52,1561.2c-5.27-3.22-2.27-27.22-2.27-27.22s24.56-19.65,27.94-4.61,23.34,21.8,34.69,23.64c7.85,1.27,10.27,5.62,11,8.19Z" transform="translate(-142.2 -415.6)"/><path class="e04ec690-cf30-4864-a466-2043fee8ebc0" d="M1264.35,1541.94c-8,2.56-23.36,10.37-33.11,6.7-6.3-2.37-41.5-104.21-43.79-148.75a81.19,81.19,0,0,0-.94-8.15c-.24-1.59-.53-3.29-.86-5.11-3.26-18-10.36-46.58-17.42-75.42-9.51-38.93-18.94-78.38-18.68-93.11.51-29,86.38-6.07,86.38-6.07s5.14,20.72,6.79,51.47c.11,2.18.21,4.43.29,6.72,2.33,68.33,8.74,183.75,26.18,263.9A6.9,6.9,0,0,1,1264.35,1541.94Z" transform="translate(-142.2 -415.6)"/><path class="e3f35a31-b8c7-4821-886e-9915034ca0be" d="M1242.72,1263.5l-56.21,128.24c-.24-1.59-.53-3.29-.86-5.11-3.26-18-10.36-46.58-17.42-75.42l-10-100.11,77.71.93S1241.07,1232.75,1242.72,1263.5Z" transform="translate(-142.2 -415.6)"/><path class="bbc549fe-1c05-4094-ba0b-1fb427a20b27" d="M1195.05,1020.24s28.77,1,39.47,13.79,23.53,103.87,30.67,122.55,15.69,84.27,15.69,86.79l-11.55,2.27s-32-67.7-34.83-82.59-37.6-88.82-37.34-93.94S1195.05,1020.24,1195.05,1020.24Z" transform="translate(-142.2 -415.6)"/><path class="bbc549fe-1c05-4094-ba0b-1fb427a20b27" d="M1122.83,1054.53a12.16,12.16,0,0,0-17.24-12.57c-10.95,5.15-23,12.33-26.71,20.16-7.16,15.31-22.92,81.93-21.69,106.7,0,0,13.4,3.58,22.94-.51s41.68-106,41.68-106Z" transform="translate(-142.2 -415.6)"/><path class="e3f35a31-b8c7-4821-886e-9915034ca0be" d="M1160.1,1561.36s-1.53-11.86-5-18.91-26-2.57-26-2.57-4.49,3.85-5.45,21.8Z" transform="translate(-142.2 -415.6)"/><path class="e04ec690-cf30-4864-a466-2043fee8ebc0" d="M1204.76,1218.2l-45.4,329s-19.93,4.8-35.44,1c0,0-13.29-175-12.18-217.28s1.84-102,6.75-115.44C1126.2,1194.36,1204.76,1218.2,1204.76,1218.2Z" transform="translate(-142.2 -415.6)"/><path class="bbc549fe-1c05-4094-ba0b-1fb427a20b27" d="M1188.15,1005.07l0,4.27s1.17,13.33-15.25,15.27-28.84-5.2-28.4-15.48c1.48-8,3.1-13.43,3.21-20a47.17,47.17,0,0,0-.58-8l31.8-.63,9.37,1.53Z" transform="translate(-142.2 -415.6)"/><path class="bd4050ad-5423-4765-9d6a-d896c12f2072" d="M1188.27,982v16.71c-12.15,4.37-36.76-3-38.79-12.81l29.42-5.43Z" transform="translate(-142.2 -415.6)"/><path class="bbc549fe-1c05-4094-ba0b-1fb427a20b27" d="M1144.66,976c3.69,19.86,29.32,19.2,40.39,18,3.12-.35,5.08-.75,5.08-.75,3.51-.94,5.47-6.47,6.38-13.72,1.81-14.35-.47-35.41-2.9-40.8-3.64-8.1-10.52-16.87-36.32-10.54S1139.93,950.56,1144.66,976Z" transform="translate(-142.2 -415.6)"/><path class="a43546a6-354e-49fb-a9f5-03511a097cbd" d="M1177.46,980.72s2.13,3.74,9.41,3a5.42,5.42,0,0,0,5.19-4.61A26.88,26.88,0,0,0,1177.46,980.72Z" transform="translate(-142.2 -415.6)"/><path class="a43546a6-354e-49fb-a9f5-03511a097cbd" d="M1233,1089.75c18.39-1.5,27.19-10.3,27.19-10.3s-16.58-45.42-25.69-53.22-46.25-14.58-46.25-14.59a2.19,2.19,0,0,0-.52-.27h0c0,4.12-6.5,11.73-16.51,12.39-11.89.78-26.74-7.8-26.74-14.64,0,0-28.32,2-43.41,10.15s-33.09,48.63-33.09,48.63,6.1,20,43.71,26.4l-2.7,133c69.42,23,133.38-.71,133.38-.71,1.5,0-8.19-76.24-8.68-95C1233.37,1119.39,1233.12,1105.5,1233,1089.75Z" transform="translate(-142.2 -415.6)"/><path class="e3f35a31-b8c7-4821-886e-9915034ca0be" d="M1200,938.11a9.72,9.72,0,0,0-2.4-15.37c-5.78-3.07-14.85-7.51-22.6-9.61-11.45-3.1-22.78.45-27.23,2.8a6.62,6.62,0,0,1,1.09-2.68,6,6,0,0,0-2.3,3.4c-.2.15-.3.25-.24.29a7.58,7.58,0,0,0-3.72.24s1-.15,1.38.51a.55.55,0,0,0,.16.18c-17,8.19-22.64,28.25-13.07,41.2,5.91,8,16.47,24.27,16.47,24.27a34,34,0,0,1-2.2-8.09,6.87,6.87,0,0,1,.58-3.15,8.28,8.28,0,0,0,0-6.15c-1.16-2.89-1.43-5.86,1-7.09,2.87-1.43,5.12.65,6.55,2.8a4.29,4.29,0,0,0,5.19,1.67l.18-.08c7.17-3,1.2-11.34,7.47-16.41s23-2.44,28.47-4.54A38.1,38.1,0,0,0,1200,938.11Z" transform="translate(-142.2 -415.6)"/><path class="f0817c4a-3d31-47bc-9585-7c1292fd51d0" d="M1260.64,1260.05c2.61-16.56,18.67-27.79,35.87-25.08a32.4,32.4,0,0,1,12,4.41l7.1,4.08-.69,1.12a29.91,29.91,0,0,1,8,25.27c-2.6,16.56-18.66,27.79-35.87,25.08-1.07-.17-2.13-.39-3.16-.66l-.67,1.06-8-4.74h0A30.35,30.35,0,0,1,1260.64,1260.05Z" transform="translate(-142.2 -415.6)"/><path class="a430151c-caa2-441e-acf2-30681a61ea94" d="M1329.67,1273.73c2.61-16.55-9.22-32.17-26.43-34.88s-33.26,8.52-35.87,25.08,9.23,32.18,26.44,34.88S1327.07,1290.29,1329.67,1273.73Z" transform="translate(-142.2 -415.6)"/><path class="f0817c4a-3d31-47bc-9585-7c1292fd51d0" d="M1288.17,1266a10.05,10.05,0,0,1,11.65-8.14,10.39,10.39,0,0,1,3.89,1.43l2.31,1.32-.23.37a9.69,9.69,0,0,1,2.61,8.2,10.05,10.05,0,0,1-11.65,8.14,8.37,8.37,0,0,1-1-.21l-.22.34-2.61-1.54h0A9.84,9.84,0,0,1,1288.17,1266Z" transform="translate(-142.2 -415.6)"/><path class="a430151c-caa2-441e-acf2-30681a61ea94" d="M1310.59,1270.44a10.25,10.25,0,1,0-11.65,8.14A10.06,10.06,0,0,0,1310.59,1270.44Z" transform="translate(-142.2 -415.6)"/><path class="bbc549fe-1c05-4094-ba0b-1fb427a20b27" d="M1057.19,1168.82s46.8,17.85,111.12,10v-13.32s-69.32-13.79-82.87-25.91C1085.44,1139.6,1061,1149.78,1057.19,1168.82Z" transform="translate(-142.2 -415.6)"/><path class="f0817c4a-3d31-47bc-9585-7c1292fd51d0" d="M1219.75,1147c-4-14.88-19.77-23.58-35.23-19.44a30,30,0,0,0-10.53,5.21l-6.09,4.42.74,1a27.47,27.47,0,0,0-4.89,23.88c4,14.88,19.76,23.58,35.23,19.44,1-.26,1.91-.57,2.83-.91l.7.9,6.91-5.11h0A27.91,27.91,0,0,0,1219.75,1147Z" transform="translate(-142.2 -415.6)"/><path class="a430151c-caa2-441e-acf2-30681a61ea94" d="M1158,1166.21c-4-14.88,5.3-30.3,20.77-34.45s31.23,4.55,35.22,19.44-5.31,30.3-20.77,34.45S1162,1181.1,1158,1166.21Z" transform="translate(-142.2 -415.6)"/><path class="f0817c4a-3d31-47bc-9585-7c1292fd51d0" d="M1191.36,1158.46a6.47,6.47,0,0,0-8.68-5c-1.76.64-48.36,29.81-48.36,29.81l10,12.34,45.22-32.28A5.37,5.37,0,0,0,1191.36,1158.46Z" transform="translate(-142.2 -415.6)"/><path class="bbc549fe-1c05-4094-ba0b-1fb427a20b27" d="M1181.17,1181.21c.24-.71,13.91-11.18,7.73-23.2-2.84-5.51-8.3-5.18-11.1-2.67-2.14,1.91-1.35,7.24-.55,9.58C1178.57,1168.81,1181.17,1181.21,1181.17,1181.21Z" transform="translate(-142.2 -415.6)"/><path class="f0817c4a-3d31-47bc-9585-7c1292fd51d0" d="M1184.16,1173.7c-4.34-16.19-21.5-25.66-38.32-21.15a32.55,32.55,0,0,0-11.46,5.66l-6.62,4.81.81,1a29.86,29.86,0,0,0-5.32,26c4.34,16.19,21.5,25.66,38.32,21.15,1-.28,2.08-.62,3.08-1l.77,1,7.51-5.56h0A30.33,30.33,0,0,0,1184.16,1173.7Z" transform="translate(-142.2 -415.6)"/><path class="a430151c-caa2-441e-acf2-30681a61ea94" d="M1117,1194.61c-4.34-16.19,5.78-33,22.6-37.49s34,5,38.32,21.15-5.78,33-22.6,37.48S1121.31,1210.8,1117,1194.61Z" transform="translate(-142.2 -415.6)"/><path class="f0817c4a-3d31-47bc-9585-7c1292fd51d0" d="M1157.41,1182.52a10,10,0,0,0-12.44-6.86,10.46,10.46,0,0,0-3.72,1.84l-2.15,1.56.27.33a9.71,9.71,0,0,0-1.73,8.44,10,10,0,0,0,12.44,6.86c.34-.09.67-.2,1-.32l.25.32,2.44-1.81h0A9.85,9.85,0,0,0,1157.41,1182.52Z" transform="translate(-142.2 -415.6)"/><path class="a430151c-caa2-441e-acf2-30681a61ea94" d="M1135.6,1189.31a10.25,10.25,0,1,1,12.44,6.87A10.05,10.05,0,0,1,1135.6,1189.31Z" transform="translate(-142.2 -415.6)"/><path class="bd4050ad-5423-4765-9d6a-d896c12f2072" d="M1480.78,1036.05s-34,2-37.7,16c-5.9,22.41-11.41,74.62-11.41,74.62l-34.32-42.55L1385,1090.1s29.28,78.7,54,75S1480.78,1036.05,1480.78,1036.05Z" transform="translate(-142.2 -415.6)"/><path class="b1b8f09f-8920-4cd1-a2c8-f7f630eb6d56" d="M1515.72,931s4.44-17.74,30.5-12.2c0,0-12.48-1.57-15.9,3.24,0,0,9.89-4.53,16.08-.74s7.21,16.54,6.29,20.42-7.77,15.44-12.29,15.44-9.89-4-9.89-4Z" transform="translate(-142.2 -415.6)"/><path class="b1b8f09f-8920-4cd1-a2c8-f7f630eb6d56" d="M1468.86,949.26s33-39.65,50.46-14.28c0,0,13,5.41,17.75,27.59,4.81,22.63-10.24,39.83-18,35.58-5-2.72-8.77,6-8.77,6Z" transform="translate(-142.2 -415.6)"/><path class="bbc549fe-1c05-4094-ba0b-1fb427a20b27" d="M1479.23,1036.23c-.12.06,12.13,6.42,21.35,3.9,8.67-2.36,19.66-5.27,19.54-5.3-3.67-.73-10-14.11-10-35.79l-1.66.32-27.91,5.53s.64,8.79.66,17.06C1481.24,1028.9,1480.82,1035.49,1479.23,1036.23Z" transform="translate(-142.2 -415.6)"/><path class="bd4050ad-5423-4765-9d6a-d896c12f2072" d="M1480.57,1004.89s.64,8.79.66,17.06c15.61-.44,23.87-14.69,27.25-22.59Z" transform="translate(-142.2 -415.6)"/><path class="b1b8f09f-8920-4cd1-a2c8-f7f630eb6d56" d="M1511.37,996.33s8.18-12.94,10.15-24c1.4-7.89-2.62-37.16-32-32.94a40,40,0,0,0-16.57,6.26c-6.39,4.31-15.6,13.62-5.3,39.16l2.68,8.63Z" transform="translate(-142.2 -415.6)"/><path class="bbc549fe-1c05-4094-ba0b-1fb427a20b27" d="M1475.36,1012.73s37,.61,37-22.41,4.81-38.45-18.79-39.81-28.18,7.42-30.06,15.1S1465.74,1012,1475.36,1012.73Z" transform="translate(-142.2 -415.6)"/><path class="b1b8f09f-8920-4cd1-a2c8-f7f630eb6d56" d="M1476.72,950s10.12,27,25.65,31,22.26-.17,22.26-.17a44,44,0,0,1-14.38-26S1484.36,937.09,1476.72,950Z" transform="translate(-142.2 -415.6)"/><path class="b1b8f09f-8920-4cd1-a2c8-f7f630eb6d56" d="M1479.23,952.14s-7.56,6-9.4,11.89-2.67,17.93-6.19,17.52c0,0-7.62-18.36.95-28.74C1473.67,941.8,1479.23,952.14,1479.23,952.14Z" transform="translate(-142.2 -415.6)"/><path class="bbc549fe-1c05-4094-ba0b-1fb427a20b27" d="M1450.68,1202.08c18.8-60.07-1.8-73.13.16-103.19s25.23-62.38,25.23-62.38,28.19-2.85,43-1.85c13.15.89,35.68,41.82,30.06,79.61a71.23,71.23,0,0,1-3.45,13.83c-6.92,19.13-10.49,26.93-10.32,34.16.22,9.15,6.42,17.36,19.38,46.43C1561.88,1224.75,1431.5,1263.43,1450.68,1202.08Z" transform="translate(-142.2 -415.6)"/><path class="bbc549fe-1c05-4094-ba0b-1fb427a20b27" d="M1499.34,1337.22c-5.24,29.61-9.08,51.82-9.08,51.82,9.79,40.15-4.93,91.65-17.06,124-2.78,7.4-5.41,13.81-7.6,18.86a.1.1,0,0,1,0,0,.06.06,0,0,0,0,0,.81.81,0,0,0-.06.13h0c0,.15-.12.29-.18.44l0,.05c-3.18,7.33-5.31,11.6-5.31,11.6l-17.89.81s1.37-7.7,2.9-20.69c0-.05,0-.09,0-.13.49-4.19,1-8.92,1.48-14.13,2.72-29.47,4.61-73.89-1.75-118.62-15.53-109.24,5-182.44,5-182.44l65.7,21.2,3.06,1C1512.65,1262.19,1505.14,1304.28,1499.34,1337.22Z" transform="translate(-142.2 -415.6)"/><path class="bbc549fe-1c05-4094-ba0b-1fb427a20b27" d="M1518.15,1034.11s31.58,3.23,35.28,11.36c11.93,26.25,23.84,114.79,27.17,122.55s13.49,50.46,22.18,71.54l-11.09,3.32s-36.6-60.72-39.93-76.52-21.57-80.08-21.57-80.08Z" transform="translate(-142.2 -415.6)"/><path class="a43546a6-354e-49fb-a9f5-03511a097cbd" d="M1543.05,1106.67l.43,27.42a288,288,0,0,0-49.8-9.13,157.49,157.49,0,0,0-18.76-.52,79,79,0,0,0-21.12,3.29s-4.07-17.75-8.14-38.82c-.14-.76-.26-1.52-.35-2.26-2.35-20.05,15.46-36.43,8-44.45,0,0,6.51-3.56,22.78-5.69,0,0-12.47,22-11.36,27.54s49.35.55,52.67-2.5,8.6-26.4,8.6-26.4,17.09,1.87,25.44,7.94a73.93,73.93,0,0,0-9.19,15.51,39.08,39.08,0,0,0-2.39,7.67c-1.29,6.9-4.71,20,3.05,30.4Z" transform="translate(-142.2 -415.6)"/><path class="bd4050ad-5423-4765-9d6a-d896c12f2072" d="M1511.84,1266.17c-5.84,30.95-6.7,38.12-12.51,71-36-62.93-30.74-79.36-30.74-79.36Z" transform="translate(-142.2 -415.6)"/><path class="bbc549fe-1c05-4094-ba0b-1fb427a20b27" d="M1625,1523.65c0,1.16-.09,2.28-.14,3.36-.52,10.55-1.42,17-1.42,17l-17.25-6s-.81-2.49-2.24-6.78c-.58-1.74-1.27-3.79-2-6.1l0,0c-1.41-4.18-3.13-9.19-5.07-14.76-11.75-33.67-31.73-87.57-43.37-100-33.29-35.47-82.29-190.16-82.29-190.16l66.21-21.48c9.82,9.51,17.79,27.32,24.22,48.3,16.22,52.92,22.52,126,23.37,136.53v0a3.63,3.63,0,0,0,1,2.13c31,34.48,38.24,84.7,39.11,119.28C1625.27,1511.91,1625.2,1518.22,1625,1523.65Z" transform="translate(-142.2 -415.6)"/><path class="e04ec690-cf30-4864-a466-2043fee8ebc0" d="M1496.65,1271.75l-11.49-1.41a105.88,105.88,0,0,0-16-3.94,108.26,108.26,0,0,0-28.63-1.15c5-53.37,12.22-70.4,12.22-70.4l24,42Z" transform="translate(-142.2 -415.6)"/><path class="e3f35a31-b8c7-4821-886e-9915034ca0be" d="M1496.65,1271.75l-11.49-1.41a105.88,105.88,0,0,0-16-3.94c-.72-10.25,3.4-21.23,7.6-29.52Z" transform="translate(-142.2 -415.6)"/><path class="e04ec690-cf30-4864-a466-2043fee8ebc0" d="M1452.71,1194.85s15.88,12,32,10.88,63-11.83,63-11.83,8.7,12.64,14.78,37.71c6.29,25.88,6.29,45.1,6.29,45.1s-55.08-7.21-77.26,4.44Z" transform="translate(-142.2 -415.6)"/><path class="b1b8f09f-8920-4cd1-a2c8-f7f630eb6d56" d="M1477.83,953.05s7.21,28.28,26.8,37.34c0,0-19.59-17.38-21.26-36S1477.83,953.05,1477.83,953.05Z" transform="translate(-142.2 -415.6)"/><path class="f0817c4a-3d31-47bc-9585-7c1292fd51d0" d="M1641.71,1246.63c-2.75-10.24-13.6-16.22-24.23-13.37a20.52,20.52,0,0,0-7.25,3.58l-4.19,3,.51.65a18.92,18.92,0,0,0-3.36,16.43c2.75,10.24,13.59,16.22,24.23,13.37q1-.27,1.95-.63l.48.63,4.75-3.52h0A19.18,19.18,0,0,0,1641.71,1246.63Z" transform="translate(-142.2 -415.6)"/><path class="a430151c-caa2-441e-acf2-30681a61ea94" d="M1599.22,1259.85c-2.75-10.23,3.65-20.85,14.28-23.7s21.49,3.14,24.23,13.37-3.65,20.85-14.28,23.7S1602,1270.09,1599.22,1259.85Z" transform="translate(-142.2 -415.6)"/><path class="f0817c4a-3d31-47bc-9585-7c1292fd51d0" d="M1622.18,1254.52a4.45,4.45,0,0,0-6-3.44c-1.21.44-33.27,20.5-33.27,20.5l6.86,8.49,31.11-22.2A3.69,3.69,0,0,0,1622.18,1254.52Z" transform="translate(-142.2 -415.6)"/><path class="f0817c4a-3d31-47bc-9585-7c1292fd51d0" d="M1361.62,1058.47c2.74-10.24,13.59-16.22,24.23-13.37a20.47,20.47,0,0,1,7.24,3.58l4.19,3-.51.65a18.86,18.86,0,0,1,3.36,16.43c-2.74,10.24-13.59,16.22-24.23,13.37-.66-.18-1.31-.39-1.94-.63l-.49.63-4.75-3.52h0A19.19,19.19,0,0,1,1361.62,1058.47Z" transform="translate(-142.2 -415.6)"/><path class="a430151c-caa2-441e-acf2-30681a61ea94" d="M1404.11,1071.69c2.74-10.23-3.65-20.85-14.29-23.7s-21.48,3.14-24.23,13.37,3.65,20.85,14.29,23.7S1401.36,1081.93,1404.11,1071.69Z" transform="translate(-142.2 -415.6)"/><path class="f0817c4a-3d31-47bc-9585-7c1292fd51d0" d="M1381.14,1066.36a4.45,4.45,0,0,1,6-3.44c1.21.44,33.27,20.5,33.27,20.5l-6.86,8.5-31.11-22.21A3.69,3.69,0,0,1,1381.14,1066.36Z" transform="translate(-142.2 -415.6)"/><path class="bd4050ad-5423-4765-9d6a-d896c12f2072" d="M1385.07,1090.17s-11.44-14.19-3.2-21.51,18.91-5.18,19.21-.91-3.66,16.47-3.66,16.47Z" transform="translate(-142.2 -415.6)"/><path class="bbc549fe-1c05-4094-ba0b-1fb427a20b27" d="M1602,1237.71s3.38,8,6.89,10.17,8.5,7.57,7.58,11.83-1.85,10.9-6.29,10.9-14.78-19.59-16.08-23.29-2.4-4.44-2.4-4.44Z" transform="translate(-142.2 -415.6)"/><path class="f0817c4a-3d31-47bc-9585-7c1292fd51d0" d="M1617.23,1265c-3-11.14-14.79-17.65-26.36-14.55a22.47,22.47,0,0,0-7.88,3.9l-4.56,3.3.56.72a20.55,20.55,0,0,0-3.66,17.86c3,11.14,14.79,17.65,26.36,14.55a21.81,21.81,0,0,0,2.12-.68l.53.68,5.16-3.83h0A20.87,20.87,0,0,0,1617.23,1265Z" transform="translate(-142.2 -415.6)"/><path class="a430151c-caa2-441e-acf2-30681a61ea94" d="M1571,1279.38c-3-11.13,4-22.68,15.54-25.78s23.37,3.41,26.36,14.54-4,22.68-15.54,25.79S1574,1290.52,1571,1279.38Z" transform="translate(-142.2 -415.6)"/><path class="f0817c4a-3d31-47bc-9585-7c1292fd51d0" d="M1598.83,1271.07a6.92,6.92,0,0,0-8.56-4.72,7.3,7.3,0,0,0-2.56,1.26l-1.47,1.08.18.23a6.65,6.65,0,0,0-1.19,5.8,6.92,6.92,0,0,0,8.56,4.72c.23-.06.46-.14.68-.22l.18.22,1.67-1.24h0A6.78,6.78,0,0,0,1598.83,1271.07Z" transform="translate(-142.2 -415.6)"/><path class="a430151c-caa2-441e-acf2-30681a61ea94" d="M1583.83,1275.74a7,7,0,1,1,8.55,4.72A6.91,6.91,0,0,1,1583.83,1275.74Z" transform="translate(-142.2 -415.6)"/><path class="f0817c4a-3d31-47bc-9585-7c1292fd51d0" d="M1386.09,1076.84c3-11.14,14.79-17.65,26.36-14.55a22.39,22.39,0,0,1,7.88,3.9l4.56,3.3-.55.72a20.56,20.56,0,0,1,3.65,17.87c-3,11.13-14.78,17.64-26.35,14.54a20.18,20.18,0,0,1-2.12-.68l-.53.68-5.17-3.83h0A20.89,20.89,0,0,1,1386.09,1076.84Z" transform="translate(-142.2 -415.6)"/><path class="a430151c-caa2-441e-acf2-30681a61ea94" d="M1432.32,1091.22c3-11.13-4-22.68-15.55-25.78s-23.37,3.41-26.35,14.54,4,22.68,15.54,25.79S1429.33,1102.36,1432.32,1091.22Z" transform="translate(-142.2 -415.6)"/><path class="f0817c4a-3d31-47bc-9585-7c1292fd51d0" d="M1404.49,1082.91a6.92,6.92,0,0,1,8.56-4.72,7.3,7.3,0,0,1,2.56,1.26l1.48,1.08-.18.23a6.68,6.68,0,0,1,1.19,5.8,7.08,7.08,0,0,1-9.25,4.5l-.17.22L1407,1090h0A6.81,6.81,0,0,1,1404.49,1082.91Z" transform="translate(-142.2 -415.6)"/><path class="a430151c-caa2-441e-acf2-30681a61ea94" d="M1419.5,1087.58a7,7,0,1,0-8.56,4.72A6.92,6.92,0,0,0,1419.5,1087.58Z" transform="translate(-142.2 -415.6)"/><path class="e3f35a31-b8c7-4821-886e-9915034ca0be" d="M1451.25,1199.08s14.4,10.55,29.65,11,68.87-12.69,68.87-12.69l-2.21-4.17s-58.77,15.72-72.55,11.06a104.62,104.62,0,0,1-22.15-10.17Z" transform="translate(-142.2 -415.6)"/><path class="bbc549fe-1c05-4094-ba0b-1fb427a20b27" d="M1464.07,1561.41c-6.51.09-21.83-1.66-28,0h-24.65c-5.74-3.53-8.06-7.62,7.16-9.5,22-2.72,26-24.76,26.38-27.54,0-.05,0-.09,0-.13a1,1,0,0,0,0-.16l20.57,7.86a.1.1,0,0,1,0,0,.06.06,0,0,0,0,0,.53.53,0,0,0-.06.13h0c0,.11-.1.26-.18.44l0,.05a20.74,20.74,0,0,0-.08,13.9C1467.17,1552.16,1470.58,1561.32,1464.07,1561.41Z" transform="translate(-142.2 -415.6)"/><path class="bbc549fe-1c05-4094-ba0b-1fb427a20b27" d="M1625.66,1561.41c-6.52.09-21.84-1.66-28,0h-24.64c-5.75-3.53-7.94-6.82,7.15-9.5,22.21-3.93,24.72-14.07,23.74-20.7a18.21,18.21,0,0,0-2-6.1l0,0,23.12-1.43s-.09,1.31-.14,3.36c-.12,4.85,0,13.86,2,19.55S1632.17,1561.32,1625.66,1561.41Z" transform="translate(-142.2 -415.6)"/><path class="e04ec690-cf30-4864-a466-2043fee8ebc0" d="M1465.3,1532.66a20.74,20.74,0,0,0-.08,13.9c2,5.6,5.36,14.76-1.15,14.85s-21.83-1.66-28,0h-24.65c-5.74-3.53-8.06-7.62,7.16-9.5,22-2.72,26-24.76,26.38-27.54,0-.05,0-.09,0-.13.49-4.19,1-8.92,1.48-14.13,0,0,10.17,7.53,26.71,3h0c-2.78,7.4-5.41,13.81-7.6,18.86a.1.1,0,0,1,0,0,.06.06,0,0,0,0,0,.81.81,0,0,0-.06.13h0c0,.15-.12.29-.18.44Z" transform="translate(-142.2 -415.6)"/><path class="e04ec690-cf30-4864-a466-2043fee8ebc0" d="M1625.66,1561.41c-6.52.09-21.84-1.66-28,0h-24.64c-5.75-3.53-7.94-6.82,7.15-9.5,22.21-3.93,24.72-14.07,23.74-20.7-.58-1.74-1.27-3.79-2-6.1l0,0c-1.41-4.18-3.13-9.19-5.07-14.76,6.33.06,17.92-.61,28.3-5.34.17,6.93.1,13.24-.11,18.67,0,1.16-.09,2.28-.14,3.36-.12,4.85,0,13.86,2,19.55S1632.17,1561.32,1625.66,1561.41Z" transform="translate(-142.2 -415.6)"/><path class="a43546a6-354e-49fb-a9f5-03511a097cbd" d="M1471,999.23s1,2.12,1.38,3.18,6.58,1.1,8.53-.08a16.16,16.16,0,0,0,3.49-3.6S1473.74,998.48,1471,999.23Z" transform="translate(-142.2 -415.6)"/><path class="a430151c-caa2-441e-acf2-30681a61ea94" d="M729.91,1335c-5.6,6.1-14,12.39-.65,26.34,17.12,17.88,43.61,94.93,43.61,94.93-.91,3,0,7-2.07,8.23-3.39,2-12-4-12-4s-78.64-81.46-85-99.78c-4.71-13.52,19.37-79,33.78-113.37,5.11-12.16,9-20.41,10-21.05l.44-.28c8.48-5.37,16.45-4.68,23.57-.56a34.43,34.43,0,0,1,4.45,3.08c17.59,14.27,28.89,48.13,27.72,55.17-.81,4.9-9.4,15.28-18.81,25.49-2,2.12-4,4.24-5.92,6.29C740.38,1324.5,732.31,1332.39,729.91,1335Z" transform="translate(-142.2 -415.6)"/><path class="a056594b-261c-44fb-9244-31b13a85e70e" d="M754.86,1309.23c-2,2.12-4,4.24-5.92,6.29l-41.42-68.14c5.11-12.16,9-20.41,10-21.05l.44-.28,23.57-.56,4.26-.1.19,3.18Z" transform="translate(-142.2 -415.6)"/><path class="bbc549fe-1c05-4094-ba0b-1fb427a20b27" d="M731.41,1072.2s8.81,21.54,6.53,34.35-32.62,76.66-43.68,87.59-84.36-35.55-84.36-35.55l7.22-6.9s58,14.76,61,10.13S696,1066.22,731.41,1072.2Z" transform="translate(-142.2 -415.6)"/><path class="a430151c-caa2-441e-acf2-30681a61ea94" d="M729.67,1241s15.05,75.21,53,128.12c36.68,51.14,55.76,129.51,55.76,129.51s2.43,1.9,7.22-.14,8,.44,9-1.89c0,0-6.93-123.71-26-150.79-10.75-15.3-16.49-71.48-16.12-86.76s-6.32-34-6.32-34Z" transform="translate(-142.2 -415.6)"/><path class="e3f35a31-b8c7-4821-886e-9915034ca0be" d="M854.27,1518.81l-8.87.06c-3-.45-5.18-1.29-8.23-1.67-4.64-.57-6.76,1.34-7.18,1.78l-.08.09-37.69.26c-1-1.34-.07-4.49.8-6.8a5.34,5.34,0,0,1,3.51-3.25c4-1.19,11.86-2.28,19-8.86,4-3.7,19.52-13.63,19.52-13.63l.08,0c.34,0,2,.49,9.08,6.42,3.68,3,9.86-4.42,9.86-4.42a8.84,8.84,0,0,1,2.06,2.75,9.37,9.37,0,0,1,.85,5.78c-.54,3.4,1.32,9.7,2.8,14,.9,2.58,1.65,4.41,1.65,4.41S861.9,1517.8,854.27,1518.81Z" transform="translate(-142.2 -415.6)"/><path class="e3f35a31-b8c7-4821-886e-9915034ca0be" d="M856.16,1491.52c-2.11,1.51-6.56,4.48-9.52,4.89-4,.55-11.56-9.62-11.56-9.62l.08,0c.34,0,2,.49,9.08,6.42,3.68,3,9.86-4.42,9.86-4.42A8.84,8.84,0,0,1,856.16,1491.52Z" transform="translate(-142.2 -415.6)"/><path class="e3f35a31-b8c7-4821-886e-9915034ca0be" d="M854.27,1518.81l-8.87.06c-3-.45-5.18-1.29-8.23-1.67-4.64-.57-6.76,1.34-7.18,1.78l-.08.09-37.69.26c-1-1.34-.07-4.49.8-6.8,1.14-1,1.5,4.41,2.14,5.27s30.75.1,32.48-1.18,6.94-3.52,14.22-1.84c6.34,1.47,15.65-2.47,17.95-3.52.9,2.58,1.65,4.41,1.65,4.41S861.9,1517.8,854.27,1518.81Z" transform="translate(-142.2 -415.6)"/><path class="fea926ac-d0a1-460e-8a6a-9e0fa39cc130" d="M808.52,1177.71c0-42.17-7.69-103-18.24-107.7-9-4-28.5-9.65-48.65-9.34-15.91.24-49.8,7.68-53.25,33.95-2.18,16.64-3.06,30.34-3.06,30.34s3.64,10.62,13.69,13.46c1.25,4.7,1.83,9.36,3.32,13.3,16.7,44,8.5,88,8.5,88,15.36,12.78,91.83,5.3,99.53.27C822.91,1231.76,808.49,1219.88,808.52,1177.71Z" transform="translate(-142.2 -415.6)"/><path class="e3f35a31-b8c7-4821-886e-9915034ca0be" d="M790.19,1466.84l-6.36,6.18c-2.46,1.73-4.64,2.65-7.1,4.48-3.75,2.79-4,5.64-4,6.25a.36.36,0,0,0,0,.12l-27,26.26c-1.62-.31-3.15-3.2-4.12-5.47a5.4,5.4,0,0,1,.28-4.78c2.07-3.61,7-9.84,7.63-19.56.35-5.46,4.67-23.33,4.67-23.33l0-.08c.25-.23,1.77-1,11-1.65,4.77-.33,4.06-10,4.06-10a8.81,8.81,0,0,1,3.39.57,9.37,9.37,0,0,1,4.62,3.59c2,2.83,7.66,6.09,11.67,8.14,2.44,1.25,4.24,2,4.24,2S795,1460.83,790.19,1466.84Z" transform="translate(-142.2 -415.6)"/><path class="e3f35a31-b8c7-4821-886e-9915034ca0be" d="M772.68,1445.82c-.48,2.55-1.64,7.77-3.49,10.12-2.51,3.16-15,1-15,1l0-.08c.25-.23,1.77-1,11-1.65,4.77-.33,4.06-10,4.06-10A8.81,8.81,0,0,1,772.68,1445.82Z" transform="translate(-142.2 -415.6)"/><path class="e3f35a31-b8c7-4821-886e-9915034ca0be" d="M790.19,1466.84l-6.36,6.18c-2.46,1.73-4.64,2.65-7.1,4.48-3.75,2.79-4,5.64-4,6.25a.36.36,0,0,0,0,.12l-27,26.26c-1.62-.31-3.15-3.2-4.12-5.47.11-1.53,4.13,2.15,5.19,2.33s22.28-21.2,22.65-23.32,2.57-7.34,9-11.16c5.59-3.33,9.58-12.61,10.52-15,2.44,1.25,4.24,2,4.24,2S795,1460.83,790.19,1466.84Z" transform="translate(-142.2 -415.6)"/><path class="bbc549fe-1c05-4094-ba0b-1fb427a20b27" d="M768.36,1075.58s23.27-.26,34.34,6.59,59.24,58.58,65.32,72.89-49.82,55.1-49.82,55.1l-7.88-12.55s24.9-34.95,21.73-39.51S749.75,1106.29,768.36,1075.58Z" transform="translate(-142.2 -415.6)"/><path class="bbc549fe-1c05-4094-ba0b-1fb427a20b27" d="M813.25,1195.68l9.29,7.15s-8.17,17.63-12.63,19.29l-.46.09c-4.79,1-16.69-6.82-18.68-14.85a4.51,4.51,0,0,1,.11-2.32c1.84-4.86,13-7.62,18.83-8.75C811.84,1195.88,813.25,1195.68,813.25,1195.68Z" transform="translate(-142.2 -415.6)"/><path class="bbc549fe-1c05-4094-ba0b-1fb427a20b27" d="M623.52,1153.25,618.87,1164s-19.1-3.58-21.8-7.5l-.2-.42c-2.11-4.41,2.51-17.86,9.8-21.76a4.49,4.49,0,0,1,2.28-.46c5.16.59,10.58,10.72,13.11,16.09C623,1151.93,623.52,1153.25,623.52,1153.25Z" transform="translate(-142.2 -415.6)"/><path class="fea926ac-d0a1-460e-8a6a-9e0fa39cc130" d="M759.56,1061.84s21.57,1,37.06,10.58c7.14,4.43,34.54,30.39,34.54,30.39s-3,27.13-35.68,34.49c-33.22,7.48-38.55-48-38.55-48Z" transform="translate(-142.2 -415.6)"/><path class="bbc549fe-1c05-4094-ba0b-1fb427a20b27" d="M753.65,1062.23a4.64,4.64,0,0,1,.08,5.07c-2.89,4.59-11,12.53-32.13,11.08-7.24-.5-8.9-6-4.32-11.6,1.12-1.37.74-9.25.62-12.41a103.13,103.13,0,0,1-.15-11.41l15-10.25,14.2-9.81C744.59,1045.85,750.65,1057.85,753.65,1062.23Z" transform="translate(-142.2 -415.6)"/><path class="a57b6c54-3d66-4476-81a8-638a837664d2" d="M746.41,1034.42s-10.45,16.37-28.51,19.95a103.13,103.13,0,0,1-.15-11.41l15-10.25Z" transform="translate(-142.2 -415.6)"/><path class="bbc549fe-1c05-4094-ba0b-1fb427a20b27" d="M711.3,1042s34.8,8.08,39.53-13.32,12.42-34.78-9.6-40.85-28.15,1.16-31.5,7.92S702.37,1039.38,711.3,1042Z" transform="translate(-142.2 -415.6)"/><path class="b1b8f09f-8920-4cd1-a2c8-f7f630eb6d56" d="M766.44,986.94c.35-.35,1.1-.59,2.75-.57a6.68,6.68,0,0,0-3-1.07c-.19-2.3-1.13-6.42-5-7.66a5,5,0,0,1,2.15,3.71c-4.24-5-13.75-9-40.85-8.67-35.71.45-25.51,24-21.09,27s16.49-3.65,25-2.4,9.34,13.74,12.13,15.63,1.85-1.19,5.9-2.71,4,5,2.58,9.19,3.62,10.11,3.62,10.11l5.85-5.52c5.85-5.52,12.65-30.09,10.52-35.57C766.82,987.92,766.64,987.43,766.44,986.94Z" transform="translate(-142.2 -415.6)"/><path class="a43546a6-354e-49fb-a9f5-03511a097cbd" d="M708.31,1028.5a5.39,5.39,0,0,0,4.47,3.59,7.28,7.28,0,0,0,5.83-2.11S712.83,1027.29,708.31,1028.5Z" transform="translate(-142.2 -415.6)"/><path class="aa06b527-8de5-4615-bf92-a16f768c2199" d="M3117,1565.11v1.32a3.45,3.45,0,0,1-3.43,3.44H145.63a3.44,3.44,0,0,1-3.43-3.44v-1.32a3.44,3.44,0,0,1,3.43-3.44H3113.57A3.45,3.45,0,0,1,3117,1565.11Z" transform="translate(-142.2 -415.6)"/><path class="ae32d47d-1f45-4bc1-950a-95279dd0d958" d="M2277.45,1199.19v217.55h-2.09V1199.28l1,0Z" transform="translate(-142.2 -415.6)"/><path class="ebb4fd44-3bc7-4b26-bc85-e99e9279c3a6" d="M2446.78,1309.79a180.91,180.91,0,0,0-37.84-57.63,175.75,175.75,0,0,0-56.12-38.85,171.5,171.5,0,0,0-68.74-14.25c-2.21,0-4.43,0-6.63.13l-1,0-1,0a171,171,0,0,0-60,14,175.68,175.68,0,0,0-56.13,38.85,180.91,180.91,0,0,0-37.84,57.63,186.36,186.36,0,0,0,0,141.15,180.91,180.91,0,0,0,37.84,57.63,175.84,175.84,0,0,0,56.13,38.85,172.9,172.9,0,0,0,137.47,0,175.91,175.91,0,0,0,56.12-38.85,180.91,180.91,0,0,0,37.84-57.63,186.36,186.36,0,0,0,0-141.15Zm-44.33,192.11c-31.62,32.46-73.66,50.34-118.37,50.34s-86.75-17.88-118.37-50.34-49-75.63-49-121.54,17.41-89.07,49-121.53c29.56-30.35,68.21-47.95,109.65-50.12l1,0,1-.05c2.2-.09,4.42-.13,6.63-.13,44.71,0,86.75,17.88,118.37,50.35s49,75.62,49,121.53S2434.07,1469.44,2402.45,1501.9Z" transform="translate(-142.2 -415.6)"/><path class="a056594b-261c-44fb-9244-31b13a85e70e" d="M2221.19,1527.72c-.32,14.43-.56,24.14-.56,24.14a10,10,0,0,1-10.53,9.39l-36.61-2.63a10.06,10.06,0,0,1-9.15-10.81s1-9.74,2.4-24.09c.27-2.74.55-5.56.84-8.55,3.1-32,7.46-78.62,9-99.42,1.39-20.38,3.23-68.17,4.32-97.61.12-3,.22-5.75.31-8.32.35-10,.54-16.4.54-16.4a10,10,0,0,1,10.52-9.39l36.61,2.63a10.06,10.06,0,0,1,9.15,10.81s-.76,6.32-1.93,16.13c-.26,2.56-.63,5.46-.92,8.54-3.43,29.26-8.75,76.63-10.15,97.1-1.41,20.72-2.77,67.6-3.62,99.72C2221.32,1522.05,2221.29,1525,2221.19,1527.72Z" transform="translate(-142.2 -415.6)"/><path class="a430151c-caa2-441e-acf2-30681a61ea94" d="M2205.18,1526.57c-.32,14.43-.56,24.14-.56,24.14a10,10,0,0,1-10.53,9.39l-20.6-1.48a10.06,10.06,0,0,1-9.15-10.81s1-9.74,2.4-24.09c.27-2.74.55-5.56.84-8.55,3.1-32,7.46-78.62,9-99.42,1.39-20.38,3.23-68.17,4.32-97.61.12-3,.22-5.75.31-8.32.35-10,.54-16.4.54-16.4a10,10,0,0,1,10.52-9.39l20.6,1.48a10.06,10.06,0,0,1,9.15,10.81l-1.94,16.13c-.25,2.56-.62,5.46-.91,8.53-3.43,29.27-8.75,76.64-10.15,97.1-1.42,20.72-2.77,67.61-3.62,99.72C2205.31,1520.9,2205.28,1523.82,2205.18,1526.57Z" transform="translate(-142.2 -415.6)"/><path class="e2f7bc55-333f-4474-9de1-0f37bcc33724" d="M2236.06,1313.6c-.26,2.56-.63,5.46-.92,8.54l-53.54-3.86a1.91,1.91,0,0,1-.74-.14c.12-3,.22-5.75.31-8.32a2.08,2.08,0,0,1,1-.1Z" transform="translate(-142.2 -415.6)"/><path class="e2f7bc55-333f-4474-9de1-0f37bcc33724" d="M2166.74,1523.72a1.11,1.11,0,0,0,.5.12l54,3.88c.1-2.75.13-5.67.18-8.76l-53.54-3.86a.31.31,0,0,0-.25.07Z" transform="translate(-142.2 -415.6)"/><path class="b88aa5ea-cf8b-448a-84f2-17a5bfb7284a" d="M2264.91,1317.57v0Z" transform="translate(-142.2 -415.6)"/><path class="ae32d47d-1f45-4bc1-950a-95279dd0d958" d="M2264.91,1318.65a1.06,1.06,0,0,1-1-1.08v-117.4a1,1,0,1,1,2.09,0v117.4A1.05,1.05,0,0,1,2264.91,1318.65Z" transform="translate(-142.2 -415.6)"/><path class="a430151c-caa2-441e-acf2-30681a61ea94" d="M2264.43,1338.41h0a4.07,4.07,0,0,1-4-4.05v-14.44a4.06,4.06,0,0,1,4-4h0a4.06,4.06,0,0,1,4.05,4v14.44A4.07,4.07,0,0,1,2264.43,1338.41Z" transform="translate(-142.2 -415.6)"/><path class="a430151c-caa2-441e-acf2-30681a61ea94" d="M2276.4,1432.93h0a4.07,4.07,0,0,1-4.05-4v-14.43a4.07,4.07,0,0,1,4.05-4h0a4.06,4.06,0,0,1,4,4v14.43A4.06,4.06,0,0,1,2276.4,1432.93Z" transform="translate(-142.2 -415.6)"/><path class="baaea56f-0847-4b80-b2f2-f87d8fe64efa" d="M186.62,1061.31q1.32-4.79,2.74-9.53c1.3-4.38,2.68-8.75,4.11-13.12a42.21,42.21,0,0,1,13.51,2.67S194.39,1052.09,186.62,1061.31Z" transform="translate(-142.2 -415.6)"/><path class="baaea56f-0847-4b80-b2f2-f87d8fe64efa" d="M304.57,1110.19c-9.4,21.47-24.21,24.06-29.49,21.62s-33.27-25.56-35.48-21.29,12.14,25.5,25.45,30.75c0,0-35.09,19.55-49.32,5.68s-11.33-27.25-20.29-35.66-18-11.47-15.29-5.06,20.25,17.68,22.69,30.44,5.42,21.81-11.25,13.23a94.55,94.55,0,0,1-19.52-13.9q1.91-16,4.81-32,1.47-8.13,3.24-16.2c.38-1.84.8-3.69,1.23-5.55.64-2.86,1.32-5.72,2-8.57,8.15-1.85,30.29-32.45,30.29-32.45s40.24,9.4,50.73,19.66c0,0-42.51,16-36,20s51.46-10.61,51.46-10.61S314,1088.73,304.57,1110.19Z" transform="translate(-142.2 -415.6)"/><path class="baaea56f-0847-4b80-b2f2-f87d8fe64efa" d="M286.5,1104.75c-55.52-16.76-87.72-19.39-106.38-16.91.38-1.84.8-3.69,1.23-5.55C221.46,1080.25,284.34,1103.93,286.5,1104.75Z" transform="translate(-142.2 -415.6)"/><path class="baaea56f-0847-4b80-b2f2-f87d8fe64efa" d="M465.75,982.13c-13.9,33.92-36.95,38.55-45.3,34.93s-53-38.71-56.28-32,19.94,39.4,40.95,47.14c0,0-54.13,31.89-76.9,10.72s-18.75-42.2-33.07-55-28.57-17.23-24.1-7.31,32.32,26.88,36.61,46.74,9.32,33.91-17.09,21.1-65.12-47.07-59.88-70.91l.66-3v0l4.58-20.83s-.76-1.78-1.79-4.81v0a462.94,462.94,0,0,1,27.91-41.83c.56-.77,1.14-1.53,1.72-2.29q11.66-15.39,25-30.33c7.43.15,15.12,1.14,21.79,3.67,0,0-47.44,42.57-39,50.91S321,877.79,321,877.79s63.26,13.17,80,28.81c0,0-65.86,26.62-55.6,32.61s80.08-18.5,80.08-18.5S479.66,948.22,465.75,982.13Z" transform="translate(-142.2 -415.6)"/><path class="baaea56f-0847-4b80-b2f2-f87d8fe64efa" d="M437.23,974.28c-176-48.51-202-11.08-205.87.29v0a11.54,11.54,0,0,0-.66,3c-2.93-.37-8,1-13.7,3.22q3.64-7.5,7.64-14.94a87.49,87.49,0,0,0,11.31-12.1C283.17,920.63,431.93,972.41,437.23,974.28Z" transform="translate(-142.2 -415.6)"/><path class="f8db6659-21ae-47df-997a-d241ce6960a2" d="M2995.16,1494.91l.16,54.75a11.82,11.82,0,0,1-11.75,11.82l-22.44.06a12.5,12.5,0,0,1-12.5-12.42l-.16-54.07a22.67,22.67,0,0,1,13.46-20.72,2.57,2.57,0,0,0,1.54-2.68c0-.32-.06-.66-.07-1v-2.89l16.67,0v2.89a8.09,8.09,0,0,1-.08,1.12,2.27,2.27,0,0,0,1.31,2.45A22.66,22.66,0,0,1,2995.16,1494.91Z" transform="translate(-142.2 -415.6)"/><path class="f0817c4a-3d31-47bc-9585-7c1292fd51d0" d="M2995.16,1494.91l.16,54.75a11.82,11.82,0,0,1-11.75,11.82l-14.11,0A12.49,12.49,0,0,1,2957,1549.1l-.16-54.08a22.64,22.64,0,0,1,13.46-20.71,2.73,2.73,0,0,0,1-.74,2.5,2.5,0,0,0,.57-1.94,8.26,8.26,0,0,1-.07-1v-2.89l8.34,0v2.89a8.09,8.09,0,0,1-.08,1.12,2.27,2.27,0,0,0,1.31,2.45A22.66,22.66,0,0,1,2995.16,1494.91Z" transform="translate(-142.2 -415.6)"/><path class="a430151c-caa2-441e-acf2-30681a61ea94" d="M2985.91,1494.94l.16,54.74a11.82,11.82,0,0,1-11.75,11.82l-4.86,0A12.49,12.49,0,0,1,2957,1549.1l-.16-54.08a22.64,22.64,0,0,1,13.46-20.71,2.73,2.73,0,0,0,1-.74,2,2,0,0,0,.83.62A22.68,22.68,0,0,1,2985.91,1494.94Z" transform="translate(-142.2 -415.6)"/><rect class="e2f7bc55-333f-4474-9de1-0f37bcc33724" x="2948.53" y="1499.67" width="46.68" height="32.13" transform="translate(-146.66 -406.83) rotate(-0.17)"/><rect class="b1b8f09f-8920-4cd1-a2c8-f7f630eb6d56" x="2962.45" y="1463.13" width="18.54" height="4.39" transform="translate(-149.42 -400.86) rotate(-0.28)"/><path class="fbf0ccb2-125d-4193-b461-baf92b8f8631" d="M2439.74,1045.46a70.64,70.64,0,0,0-.58-13c-5,12.89-12,19.43-16.95,22.65a9.34,9.34,0,0,1-3.56.39,53.14,53.14,0,0,1-7.83-2.56c7.31-5.64,14.4-14.56,14.83-15.12-6.57,6-14.55,10.2-20.07,12.61-13.59-7.39-22.91-19.46-28-27.42,34.88-11,45.15-32.88,45.15-32.88-31,24.75-44.74,25.95-49.55,25.1l-.09-.19c46.65-12.36,59.57-66.87,75.31-86s34.84-4.49,34.84-4.49S2481.25,992.13,2439.74,1045.46Z" transform="translate(-142.2 -415.6)"/><path class="bd4050ad-5423-4765-9d6a-d896c12f2072" d="M2521,1029.5s30.48,16.2,27.95,30.71c-4,23.12-21,73.55-21,73.55l49.58-24.7,8.87,10.7s-60.22,60.12-81.43,46.31S2521,1029.5,2521,1029.5Z" transform="translate(-142.2 -415.6)"/><path class="f9e7d674-c540-44ce-b82f-e53fdb9df643" d="M2586.34,1119.79s16.53-8.23,12-18.45-15.23-12.77-17.31-9-3.59,16.72-3.59,16.72Z" transform="translate(-142.2 -415.6)"/><path class="fbf0ccb2-125d-4193-b461-baf92b8f8631" d="M2528.46,941.1s-33.43-40.18-51.13-14.47c0,0-13.21,5.48-18,28-4.87,22.93,10.38,40.37,18.27,36.06,5-2.76,8.88,6.09,8.88,6.09Z" transform="translate(-142.2 -415.6)"/><path class="bbc549fe-1c05-4094-ba0b-1fb427a20b27" d="M2518,1029.24c.12,0-12.3,6.5-21.64,4-8.79-2.4-19.92-5.35-19.8-5.37,3.72-.74,10.19-14.3,10.11-36.28l1.68.34,28.29,5.6s-.65,8.9-.66,17.28C2515.92,1021.81,2516.34,1028.48,2518,1029.24Z" transform="translate(-142.2 -415.6)"/><path class="bd4050ad-5423-4765-9d6a-d896c12f2072" d="M2516.6,997.48s-.65,8.9-.66,17.28c-15.83-.44-24.2-14.88-27.63-22.88Z" transform="translate(-142.2 -415.6)"/><path class="fbf0ccb2-125d-4193-b461-baf92b8f8631" d="M2485.39,988.8s-8.29-13.11-10.29-24.32c-1.42-8,2.66-37.66,32.46-33.38a40.46,40.46,0,0,1,16.79,6.34c6.47,4.37,15.81,13.81,5.37,39.69l-2.71,8.74Z" transform="translate(-142.2 -415.6)"/><path class="bbc549fe-1c05-4094-ba0b-1fb427a20b27" d="M2521.88,1005.42s-37.45.62-37.47-22.71-4.88-39,19-40.34,28.57,7.51,30.47,15.3S2531.62,1004.66,2521.88,1005.42Z" transform="translate(-142.2 -415.6)"/><path class="fbf0ccb2-125d-4193-b461-baf92b8f8631" d="M2520.5,941.8s-10.26,27.36-26,31.41S2472,973,2472,973a44.55,44.55,0,0,0,14.57-26.33S2512.76,928.77,2520.5,941.8Z" transform="translate(-142.2 -415.6)"/><path class="fbf0ccb2-125d-4193-b461-baf92b8f8631" d="M2518,944s7.65,6.11,9.52,12.05,2.71,18.17,6.27,17.75c0,0,7.73-18.6-1-29.12C2523.59,933.54,2518,944,2518,944Z" transform="translate(-142.2 -415.6)"/><path class="bbc549fe-1c05-4094-ba0b-1fb427a20b27" d="M2441.46,1204c13.13-29.45,19.41-37.78,19.63-47a81.54,81.54,0,0,0-.68-11,152.51,152.51,0,0,0-4-20.8h0a1.67,1.67,0,0,0-.06-.24c-.17-.68-.51-2.19-1-4.35-3.59-17.75-13.15-79.84,21.19-92.84l1-.09c15-1,43.55,1.88,43.55,1.88a170.62,170.62,0,0,1,11.06,18.29c6.42,12.19,13.46,28.88,14.51,44.92,1.06,16.39-4.48,27.79-6.86,44.3-2.06,14.19-1.79,32.14,7,60.28C2566.33,1259.48,2434.2,1220.28,2441.46,1204Z" transform="translate(-142.2 -415.6)"/><path class="fbf0ccb2-125d-4193-b461-baf92b8f8631" d="M2519.38,944.94s-7.31,28.66-27.16,37.84c0,0,19.85-17.61,21.54-36.53S2519.38,944.94,2519.38,944.94Z" transform="translate(-142.2 -415.6)"/><path class="bd4050ad-5423-4765-9d6a-d896c12f2072" d="M2539.87,1137s-49.86,14.28-79.46,8.93a152.51,152.51,0,0,0-4-20.8h0a1.67,1.67,0,0,0-.06-.24c-.17-.68-.51-2.19-1-4.35a139,139,0,0,1,20.58-9.48Z" transform="translate(-142.2 -415.6)"/><path class="baaea56f-0847-4b80-b2f2-f87d8fe64efa" d="M2546.42,1104.39c-1.23,10.83-4.78,20.31-6.55,32.64-34.28,4.49-71.69-7.61-83.46-11.87h0a1.67,1.67,0,0,0-.06-.24c-1.57-6.3-18.27-82.61,20.24-97.19,5,1.62,8.64,7.13,15.41,9.75a95.87,95.87,0,0,0,40.66,5.82c4.45,8.46,8.77,23.58,11.62,34.65a81.45,81.45,0,0,1,2.46,14.78A63.73,63.73,0,0,1,2546.42,1104.39Z" transform="translate(-142.2 -415.6)"/><path class="baaea56f-0847-4b80-b2f2-f87d8fe64efa" d="M2518,1029.24s8.77-.38,11.58,1.49,17.05,18.55,17.8,20.8c0,0-17.61-1.5-19.29-.38C2528.05,1051.15,2534.46,1047.41,2518,1029.24Z" transform="translate(-142.2 -415.6)"/><path class="f9e7d674-c540-44ce-b82f-e53fdb9df643" d="M2658.42,1054.52s28.1-12,29.22-8.24,3.37,20.61-2.62,22.85-27.73,0-27.73,0Z" transform="translate(-142.2 -415.6)"/><path class="bbc549fe-1c05-4094-ba0b-1fb427a20b27" d="M2596.57,1548.45l-13.73-4.18s-63.54-73.19-49.26-150a3.79,3.79,0,0,0-.22-2.4v0c-2.75-5.44-14.57-29.13-26.85-58.53-5.87-14.08-11.85-29.47-17-44.8-3-9-5.77-18.08-8-26.8,0-.09,0-.15-.05-.2a.35.35,0,0,1,0-.1c-5.52-21.53-8-41.15-4.56-54.57l68.6-16.38s6.83,27.69,14.06,63.5c10.14,50.17,21.09,116.25,15.23,144.41C2569.55,1423.33,2596.57,1548.45,2596.57,1548.45Z" transform="translate(-142.2 -415.6)"/><path class="e04ec690-cf30-4864-a466-2043fee8ebc0" d="M2570.84,1112.36a36.75,36.75,0,0,1,7.72,15s7.73-7.51,8.19-7.69,7.23-4,10.18-8.32,4.92-8,1-14.52-15.18-8.43-16.49-7.12-4.87,17.61-4.87,17.61S2576.16,1108.58,2570.84,1112.36Z" transform="translate(-142.2 -415.6)"/><path class="bd4050ad-5423-4765-9d6a-d896c12f2072" d="M2506.5,1333.29c-5.87-14.08-11.85-29.47-17-44.8-3-9-5.77-18.08-8-26.8,0-.09,0-.15-.05-.2a.35.35,0,0,1,0-.1l5.19-.57,52.66-5.82s.34,4,.79,10.57C2541.18,1281.56,2524.25,1309.05,2506.5,1333.29Z" transform="translate(-142.2 -415.6)"/><path class="bbc549fe-1c05-4094-ba0b-1fb427a20b27" d="M2536.38,1208.87l-30.86,68.56-.47-.23c-17.5,48.09-42.6,110.19-62.28,131.17-17.46,18.6-59.62,139.46-59.62,139.46l-11.33-4s-14.29-102.28,37.95-160.41a3.74,3.74,0,0,0,1.07-2.16v0c.45-5.61,2.41-28.56,6.54-56.86,1-6.87,2.13-14,3.39-21.37,1.84-10.62,4-21.55,6.4-32.26l.12-.52c.1-2.6.35-6.93,1-12.58a239,239,0,0,1,5.09-29.35c.09-.34.16-.68.25-1,6.17-25.41,15-38.21,15-38.21s46.93,13,63.23,14.09S2536.38,1208.87,2536.38,1208.87Z" transform="translate(-142.2 -415.6)"/><path class="a430151c-caa2-441e-acf2-30681a61ea94" d="M2559.53,1253.94c-2.36,3.72-10,7.92-19.46,11.63l-.11,0a170.33,170.33,0,0,1-34.34,9.39c-8.58,1.25-14.9,1-15.6-1.79-5.52-21.53-16.62-53-13.15-66.4l68.6-16.38S2552.3,1218.14,2559.53,1253.94Z" transform="translate(-142.2 -415.6)"/><path class="ad20026f-069d-4a3a-b77f-f38518359c3e" d="M2371.1,1563.19H2379c2.64-.42,4.59-1.18,7.3-1.54,4.11-.54,6,1.15,6.38,1.54l.07.07h33.49c.85-1.2,0-4-.75-6a4.77,4.77,0,0,0-3.14-2.86c-3.55-1-10.55-1.95-17-7.75-3.6-3.26-17.42-12-17.42-12h-.07c-.3,0-1.75.44-8,5.75-3.25,2.74-8.78-3.87-8.78-3.87a7.94,7.94,0,0,0-1.82,2.46,8.38,8.38,0,0,0-.72,5.15c.5,3-1.11,8.62-2.4,12.42-.78,2.29-1.44,3.92-1.44,3.92S2364.32,1562.34,2371.1,1563.19Z" transform="translate(-142.2 -415.6)"/><path class="fbf0ccb2-125d-4193-b461-baf92b8f8631" d="M2369.25,1539c1.88,1.33,5.86,3.94,8.49,4.29,3.56.46,10.21-8.62,10.21-8.62h-.07c-.3,0-1.75.44-8,5.75-3.25,2.74-8.78-3.87-8.78-3.87A7.94,7.94,0,0,0,2369.25,1539Z" transform="translate(-142.2 -415.6)"/><path class="fbf0ccb2-125d-4193-b461-baf92b8f8631" d="M2371.1,1563.19H2379c2.64-.42,4.59-1.18,7.3-1.54,4.11-.54,6,1.15,6.38,1.54l.07.07h33.49c.85-1.2,0-4-.75-6-1-.9-1.31,3.93-1.87,4.7s-27.32.28-28.87-.84-6.18-3.09-12.64-1.55c-5.63,1.35-13.92-2.1-16-3-.78,2.29-1.44,3.92-1.44,3.92S2364.32,1562.34,2371.1,1563.19Z" transform="translate(-142.2 -415.6)"/><path class="ad20026f-069d-4a3a-b77f-f38518359c3e" d="M2576.77,1563.19h7.88c2.64-.42,4.59-1.18,7.3-1.54,4.11-.54,6,1.15,6.38,1.54l.08.07h33.49c.84-1.2,0-4-.76-6a4.75,4.75,0,0,0-3.14-2.86c-3.55-1-10.55-1.95-17-7.75-3.61-3.26-17.42-12-17.42-12h-.07c-.31,0-1.75.44-8,5.75-3.25,2.74-8.79-3.87-8.79-3.87a7.83,7.83,0,0,0-1.81,2.46,8.31,8.31,0,0,0-.72,5.15c.5,3-1.12,8.62-2.4,12.42-.78,2.29-1.44,3.92-1.44,3.92S2570,1562.34,2576.77,1563.19Z" transform="translate(-142.2 -415.6)"/><path class="fbf0ccb2-125d-4193-b461-baf92b8f8631" d="M2574.92,1539c1.88,1.33,5.85,3.94,8.49,4.29,3.55.46,10.21-8.62,10.21-8.62h-.07c-.31,0-1.75.44-8,5.75-3.25,2.74-8.79-3.87-8.79-3.87A7.83,7.83,0,0,0,2574.92,1539Z" transform="translate(-142.2 -415.6)"/><path class="fbf0ccb2-125d-4193-b461-baf92b8f8631" d="M2576.77,1563.19h7.88c2.64-.42,4.59-1.18,7.3-1.54,4.11-.54,6,1.15,6.38,1.54l.08.07h33.49c.84-1.2,0-4-.76-6-1-.9-1.3,3.93-1.87,4.7s-27.32.28-28.86-.84-6.18-3.09-12.65-1.55c-5.62,1.35-13.91-2.1-16-3-.78,2.29-1.44,3.92-1.44,3.92S2570,1562.34,2576.77,1563.19Z" transform="translate(-142.2 -415.6)"/><path class="fc245fc5-590b-4d73-9676-864d19642e5b" d="M2546.42,1104.39c-59.07-2.85-84.08-26.45-84.08-26.45h81.93a81.45,81.45,0,0,1,2.46,14.78A63.73,63.73,0,0,1,2546.42,1104.39Z" transform="translate(-142.2 -415.6)"/><path class="bbc549fe-1c05-4094-ba0b-1fb427a20b27" d="M2657.29,1069.13s-47.49,15.65-82,16.49c-29.07.71-79.32,4.29-106.07-4.57-5-1.67-8.6-3.85-10.07-6.67-9.27-17.7,6-36,6-36s8.63.88,21.61,2.12c32.77,3.15,75,12.75,94.9,12.15,27.81-.84,53.2,1.12,76.8,1.87Z" transform="translate(-142.2 -415.6)"/><path class="baaea56f-0847-4b80-b2f2-f87d8fe64efa" d="M2469.18,1081.05c-5-1.67-8.6-3.85-10.07-6.67-9.27-17.7,6-36,6-36s8.63.88,21.61,2.12C2483.7,1043.63,2467.71,1061.21,2469.18,1081.05Z" transform="translate(-142.2 -415.6)"/><path class="e04ec690-cf30-4864-a466-2043fee8ebc0" d="M2650.93,1054.24s1.25,10.43-2.33,17.6c0,0,8.07-2.51,8.78-2.47s17,1.33,22.72.7,8.76-.19,9.32-10.58.28-14.61-1.69-14.71-11.42,1.6-28.84,9.09C2658.89,1053.87,2657.86,1054.38,2650.93,1054.24Z" transform="translate(-142.2 -415.6)"/><path class="a430151c-caa2-441e-acf2-30681a61ea94" d="M2448.57,1189s-17.52,21.1-21.28,81.17c0,0,23.58,4.81,28.64,3.31s13.86-23,13.86-23-4.87,21.16-.19,25.1,34.28,7.49,34.28,7.49l35.22-78.3S2490.11,1199.13,2448.57,1189Z" transform="translate(-142.2 -415.6)"/><path class="f0817c4a-3d31-47bc-9585-7c1292fd51d0" d="M2446.47,1190.61s43,21.64,72.49,15.17,27.92-8.47,27.92-8.47l-4.88-17.38a73.92,73.92,0,0,1-36,7.87c-20.52-.84-50.86-14-50.86-14Z" transform="translate(-142.2 -415.6)"/></svg>